<svg width="55" height="55" viewBox="0 0 55 55" fill="none" xmlns="http://www.w3.org/2000/svg">
<path fill-rule="evenodd" clip-rule="evenodd" d="M30.4906 13.1109C30.4906 14.5745 29.3319 15.8551 27.8684 15.7331C27.3196 15.6722 25.734 15.3063 23.9046 14.8794C25.6731 15.3673 27.2586 15.8551 27.7464 16.099C29.027 16.7088 29.4539 18.4163 28.7221 19.6969C27.9903 20.9165 26.3439 21.4654 25.1242 20.6726C24.6974 20.3677 23.4777 19.27 22.1362 17.9285C23.4168 19.27 24.5754 20.4287 24.8803 20.9165C25.6731 22.1362 25.1852 23.7827 23.9046 24.5144C22.624 25.2462 20.9775 24.8803 20.3067 23.5387C20.0628 23.0509 19.5749 21.4654 19.0871 19.6969C19.5749 21.4654 19.9408 23.1119 19.9408 23.5997C20.0628 25.0633 18.7822 26.2219 17.3186 26.2219C15.8551 26.2219 14.5745 25.0633 14.6965 23.5997C14.7574 23.0509 15.1233 21.4654 15.5502 19.6969C15.0623 21.4654 14.5745 23.0509 14.3306 23.5387C13.7208 24.8193 12.0133 25.1852 10.7327 24.5144C9.45207 23.7827 8.96423 22.1362 9.75698 20.9165C10.0619 20.4897 11.2205 19.27 12.5011 17.9285C11.1595 19.2091 9.93992 20.3677 9.51305 20.6726C8.29343 21.4654 6.64694 20.9775 5.91517 19.6969C5.18339 18.4773 5.54928 16.7698 6.89087 16.099C7.37871 15.8551 8.96422 15.3673 10.7327 14.8794C8.90324 15.3063 7.31773 15.7331 6.7689 15.7331C5.30536 15.8551 4.14671 14.5745 4.14671 13.1109C4.14671 11.6474 5.30536 10.3668 6.7689 10.4888C7.31773 10.5497 8.90324 10.9156 10.7327 11.3425C8.96422 10.8546 7.37871 10.3668 6.89087 10.1229C5.61026 9.51306 5.18339 7.80559 5.91517 6.52498C6.64694 5.30536 8.29343 4.75653 9.51305 5.54929C9.93992 5.85419 11.1595 6.95185 12.5011 8.29344C11.2205 6.95185 10.0619 5.79321 9.75698 5.30536C8.96423 4.08574 9.45207 2.43925 10.7327 1.70747C12.0133 0.975699 13.7208 1.34159 14.3306 2.68317C14.5745 3.17102 15.0623 4.75653 15.5502 6.52498C15.0623 4.75653 14.6965 3.11004 14.6965 2.62219C14.5745 1.15864 15.8551 0 17.3186 0C18.7822 0 20.0628 1.15864 19.9408 2.62219C19.8799 3.17102 19.514 4.75653 19.0871 6.52498C19.5749 4.75653 20.0628 3.17102 20.3067 2.68317C20.9165 1.40257 22.624 1.03668 23.9046 1.70747C25.1852 2.43925 25.6731 4.08574 24.8803 5.30536C24.5754 5.79321 23.4168 7.01283 22.1362 8.35442C23.4777 7.07382 24.6974 5.91517 25.1242 5.61027C26.3439 4.81751 27.9903 5.30536 28.7221 6.58596C29.4539 7.80559 29.088 9.51306 27.7464 10.1839C27.2586 10.4278 25.6731 10.9156 23.9046 11.4035C25.734 10.9766 27.3196 10.5497 27.8684 10.5497C29.3319 10.3668 30.4906 11.6474 30.4906 13.1109ZM23.7826 11.5254C23.4777 11.5254 22.4411 11.7694 21.3434 12.0743C22.4411 11.7694 23.4168 11.4645 23.7217 11.3425C24.5144 10.9766 24.7583 9.93993 24.3315 9.14717C23.9046 8.35442 22.8679 8.04951 22.1362 8.53736C21.8312 8.72031 21.0995 9.3911 20.3067 10.1839C21.0995 9.3911 21.7703 8.65933 21.9532 8.35442C22.4411 7.62265 22.1362 6.58597 21.3434 6.1591C20.5506 5.73223 19.514 5.97615 19.1481 6.76891C19.0261 7.07381 18.7212 8.04951 18.4163 9.08619C18.7212 7.98853 18.9042 7.01283 18.9651 6.70793C19.0261 5.85419 18.2334 5.12242 17.3796 5.12242C16.4649 5.12242 15.7331 5.85419 15.7941 6.70793C15.7941 7.01283 16.038 7.98853 16.3429 9.08619C16.038 7.98853 15.7331 7.01283 15.6112 6.76891C15.2453 5.97615 14.2086 5.73223 13.4159 6.1591C12.6231 6.58597 12.3182 7.62265 12.806 8.35442C12.989 8.59834 13.6598 9.33012 14.4525 10.1839C13.6598 9.3911 12.928 8.72031 12.6231 8.53736C11.8913 8.04951 10.8546 8.35442 10.4278 9.14717C10.0009 9.93993 10.1838 10.9156 11.0376 11.3425C11.3425 11.4645 12.3182 11.7694 13.4159 12.0743C12.3182 11.7694 11.3425 11.5864 10.9766 11.5254C10.0009 11.4645 9.33011 12.1962 9.33011 13.1109C9.33011 13.9647 10.0619 14.7574 10.9156 14.6965C11.2205 14.6965 12.2572 14.4525 13.3549 14.1476C12.2572 14.4525 11.2815 14.7574 10.9766 14.8794C10.1838 15.2453 9.93992 16.282 10.3668 17.0747C10.7937 17.8675 11.8303 18.1724 12.5621 17.6845C12.867 17.5016 13.5988 16.8308 14.3915 16.038C13.5988 16.8308 12.928 17.5626 12.7451 17.8675C12.2572 18.5993 12.5621 19.6359 13.3549 20.0628C14.1476 20.4897 15.1843 20.2457 15.5502 19.453C15.6722 19.1481 15.9771 18.1724 16.282 17.1357C15.9771 18.2334 15.7941 19.2091 15.7331 19.514C15.6722 20.3677 16.4649 21.0995 17.3186 21.0995C18.2334 21.0995 18.9651 20.3677 18.9042 19.514C18.9042 19.2091 18.6602 18.2334 18.3553 17.1357C18.6602 18.2334 18.9651 19.2091 19.0871 19.453C19.453 20.2457 20.4897 20.4897 21.2824 20.0628C22.0752 19.6359 22.3801 18.5993 21.8922 17.8675C21.7093 17.6236 21.0385 16.8918 20.2457 16.038C21.0385 16.8308 21.7703 17.5016 22.0752 17.6845C22.8069 18.1724 23.8436 17.8675 24.2705 17.0747C24.6974 16.282 24.5144 15.3063 23.6607 14.8794C23.3558 14.7574 22.3801 14.4525 21.2824 14.1476C22.3801 14.4525 23.3558 14.6355 23.7217 14.6965C24.6364 14.7574 25.3072 13.9647 25.3072 13.1109C25.3682 12.1962 24.6364 11.4645 23.7826 11.5254ZM22.3801 14.3306C22.1362 14.3306 21.3434 14.1476 20.4897 13.9037C21.3434 14.1476 22.0752 14.3916 22.3191 14.5135C22.9289 14.8184 23.1119 15.6112 22.8069 16.221C22.4411 16.8308 21.6483 17.0747 21.0995 16.7088C20.8556 16.5869 20.3067 16.038 19.6969 15.4282C20.3067 16.038 20.8556 16.6479 20.9775 16.8308C21.3434 17.3796 21.0995 18.1724 20.4897 18.5383C19.8799 18.9042 19.0871 18.7212 18.7822 18.1114C18.6602 17.8675 18.4163 17.1357 18.1724 16.282C18.4163 17.1357 18.5992 17.9285 18.5992 18.1724C18.6602 18.8432 18.0504 19.392 17.3186 19.392C16.6479 19.392 16.038 18.8432 16.038 18.1724C16.038 17.9285 16.221 17.1357 16.4649 16.282C16.221 17.1357 15.9771 17.8675 15.8551 18.1114C15.5502 18.7212 14.7574 18.9042 14.1476 18.5383C13.5378 18.1724 13.2939 17.3796 13.6598 16.8308C13.7817 16.5869 14.3306 16.038 14.9404 15.4282C14.3306 16.038 13.7208 16.5869 13.5378 16.7088C12.989 17.0747 12.1352 16.8308 11.8303 16.221C11.4645 15.6112 11.6474 14.8184 12.3182 14.5135C12.5621 14.3916 13.2939 14.1476 14.1476 13.9647C13.2939 14.2086 12.5011 14.3916 12.2572 14.3916C11.5864 14.4525 10.9766 13.8427 10.9766 13.1109C10.9766 12.4402 11.5254 11.8303 12.2572 11.8303C12.5011 11.8303 13.2939 12.0133 14.1476 12.2572C13.2939 12.0133 12.5621 11.7694 12.3182 11.6474C11.7084 11.3425 11.5254 10.5497 11.8303 9.93993C12.1962 9.33012 12.989 9.08619 13.5378 9.45208C13.7817 9.57404 14.3306 10.1229 14.9404 10.7327C14.3306 10.1229 13.7817 9.51306 13.6598 9.33012C13.3549 8.84227 13.5988 8.04951 14.2086 7.68363C14.8184 7.31774 15.6112 7.50068 15.9161 8.11049C16.038 8.35442 16.282 9.08619 16.5259 9.93993C16.282 9.08619 16.099 8.29344 16.099 8.04951C16.038 7.37872 16.6479 6.82989 17.3796 6.82989C18.0504 6.82989 18.6602 7.37872 18.6602 8.04951C18.6602 8.29344 18.4773 9.08619 18.2334 9.93993C18.4773 9.08619 18.7212 8.35442 18.8432 8.11049C19.1481 7.50068 19.9408 7.31774 20.5506 7.68363C21.1605 8.04951 21.4044 8.84227 21.0385 9.3911C20.9165 9.63502 20.3677 10.1839 19.7579 10.7937C20.3677 10.1839 20.9775 9.63502 21.1605 9.51306C21.7093 9.14717 22.563 9.3911 22.8679 10.0009C23.2338 10.6107 23.0509 11.4035 22.3801 11.7084C22.1362 11.8303 21.4044 12.0743 20.5506 12.3182C21.4044 12.0743 22.1971 11.8913 22.4411 11.8913C23.1119 11.8303 23.7217 12.4402 23.7217 13.1719C23.6607 13.7817 23.0509 14.3916 22.3801 14.3306ZM15.4282 16.4039C15.7941 16.5869 16.282 16.5259 16.4649 16.099C16.5259 15.9771 16.6479 15.5502 16.8308 15.0014C16.7088 15.1843 16.4039 15.2453 16.16 15.1233C15.9161 15.0014 15.8551 14.6965 15.9771 14.4525C16.038 14.3916 16.221 14.1476 16.4649 13.9037C16.221 14.1476 15.9771 14.3306 15.9161 14.3916H15.8551C15.4892 14.7574 15.1843 15.1233 15.1233 15.2453C14.8794 15.7331 15.0623 16.221 15.4282 16.4039ZM17.0747 14.3306C17.0747 14.5135 17.1967 14.6355 17.3796 14.6355C17.5626 14.6355 17.6845 14.5135 17.6845 14.3306C17.7455 14.4525 17.9285 14.5135 18.1114 14.4525C18.2334 14.3916 18.2943 14.2086 18.2334 14.0257C18.1724 13.9647 18.0504 13.8427 17.9285 13.7208C18.0504 13.8427 18.2334 13.9647 18.2334 14.0257C18.3553 14.0866 18.5383 14.0866 18.6602 13.9037C18.7212 13.7817 18.7212 13.5988 18.5383 13.4768C18.7212 13.4768 18.8432 13.3549 18.8432 13.1719C18.8432 12.989 18.7212 12.867 18.5383 12.867C18.6602 12.806 18.7212 12.6231 18.6602 12.4402C18.5992 12.3182 18.4163 12.2572 18.2334 12.3182C18.1724 12.3792 18.0504 12.5011 17.9285 12.6231C18.0504 12.5011 18.1724 12.3182 18.2334 12.3182C18.3553 12.1962 18.2943 12.0133 18.1114 11.8913C17.9894 11.8303 17.8065 11.8303 17.6845 12.0133C17.6845 11.8303 17.5626 11.7084 17.3796 11.7084C17.1967 11.7084 17.0747 11.8303 17.0747 12.0133C17.0137 11.8913 16.8308 11.8303 16.6479 11.8913C16.5259 11.9523 16.4649 12.1353 16.5259 12.3182C16.5869 12.3792 16.7088 12.5011 16.8308 12.6231C16.7088 12.5011 16.5259 12.3792 16.5259 12.3182C16.4039 12.2572 16.221 12.2572 16.099 12.4402C16.038 12.5621 16.038 12.7451 16.221 12.867C16.038 12.867 15.9161 12.989 15.9161 13.1719C15.9161 13.3549 16.038 13.4768 16.221 13.4768C16.038 13.5378 16.038 13.7208 16.099 13.8427C16.16 13.9647 16.3429 14.0257 16.5259 13.9647C16.5869 13.9037 16.7088 13.7817 16.8308 13.6598C16.7088 13.7817 16.5869 13.9647 16.5259 13.9647C16.4649 14.0866 16.4649 14.2696 16.6479 14.3916C16.7698 14.5135 16.9528 14.4525 17.0747 14.3306ZM14.0257 15.0014C14.2086 15.3673 14.6965 15.4892 15.0623 15.3063C15.1843 15.2453 15.5502 14.9404 15.9161 14.5745C15.6722 14.6965 15.4282 14.5745 15.3063 14.3916C15.1843 14.1476 15.2453 13.8427 15.4892 13.7208C15.5502 13.6598 15.8551 13.5988 16.221 13.4768C15.9161 13.5378 15.6112 13.6598 15.4892 13.6598C15.4892 13.6598 15.4892 13.6598 15.4282 13.6598C14.8794 13.7817 14.4525 13.9647 14.3306 14.0257C13.9037 14.1476 13.7817 14.6355 14.0257 15.0014ZM17.3186 9.26914C16.8918 9.26914 16.5259 9.63502 16.5259 10.0619C16.5259 10.2448 16.6479 10.6717 16.7698 11.2205C16.6479 10.6717 16.4649 10.2448 16.4039 10.1229C16.221 9.75699 15.7331 9.63502 15.3672 9.81797C15.0014 10.0009 14.8184 10.4888 15.0623 10.8546C15.1233 10.9766 15.4892 11.3425 15.8551 11.7084C15.4892 11.3425 15.1233 10.9766 15.0014 10.9156C14.6355 10.6717 14.1476 10.8546 13.9647 11.2205C13.7817 11.5864 13.8427 12.0743 14.2696 12.2572C14.3915 12.3182 14.8794 12.4402 15.4282 12.6231C14.8794 12.5011 14.4525 12.3792 14.2696 12.3792C13.8427 12.3792 13.4768 12.7451 13.4768 13.1719C13.4768 13.5988 13.8427 13.9647 14.2696 13.9647C14.4525 13.9647 14.8794 13.8427 15.4282 13.7208C15.1843 13.7208 15.0014 13.4768 15.0014 13.2329C15.0014 12.989 15.2453 12.7451 15.4892 12.7451C15.6112 12.7451 15.8551 12.806 16.221 12.928C15.9161 12.806 15.6112 12.7451 15.4892 12.6841C15.2453 12.5621 15.1843 12.2572 15.3063 12.0133C15.4282 11.7694 15.7331 11.7084 15.9771 11.8303C16.038 11.8913 16.282 12.0743 16.5259 12.3182C16.282 12.0743 16.099 11.8303 16.038 11.7694C15.9161 11.5254 15.9771 11.2205 16.221 11.0986C16.4649 10.9766 16.7698 11.0376 16.8918 11.2815C16.9528 11.3425 17.0137 11.6474 17.1357 12.0133C17.0747 11.7084 16.9528 11.4035 16.9528 11.2815C16.9528 11.0376 17.1967 10.7937 17.4406 10.7937C17.6845 10.7937 17.9285 10.9766 17.9285 11.2205C18.0504 10.7327 18.1724 10.2448 18.1724 10.0619C18.1724 9.63502 17.7455 9.26914 17.3186 9.26914ZM19.27 9.81797C18.9042 9.63502 18.4163 9.696 18.2334 10.1229C18.1724 10.2448 18.0504 10.7327 17.8675 11.2205C17.8675 11.2205 17.8675 11.2205 17.8675 11.2815C17.8675 11.4035 17.8065 11.6474 17.6845 12.0133C17.8065 11.7084 17.8675 11.4035 17.9285 11.2815C18.0504 11.0376 18.3553 10.9766 18.5992 11.0986C18.7822 11.2205 18.9042 11.4645 18.7822 11.7084C19.1481 11.3425 19.453 11.0376 19.514 10.8546C19.8189 10.4888 19.6359 10.0009 19.27 9.81797ZM20.6726 11.2205C20.4897 10.8546 20.0018 10.7327 19.6359 10.9156C19.514 10.9766 19.1481 11.2815 18.7822 11.6474V11.7084C18.7212 11.7694 18.5383 12.0133 18.2943 12.2572C18.5383 12.0133 18.7822 11.8303 18.8432 11.7694C19.0871 11.6474 19.392 11.7084 19.514 11.9523C19.6359 12.1962 19.5749 12.4402 19.392 12.5621C19.8799 12.4402 20.3067 12.3182 20.4897 12.1962C20.7946 12.0743 20.9165 11.5864 20.6726 11.2205ZM20.4287 12.3182C20.2457 12.3182 19.8189 12.4402 19.331 12.5621C19.27 12.6231 18.9651 12.6841 18.5992 12.806C18.9042 12.7451 19.2091 12.6231 19.331 12.6231C19.5749 12.6231 19.8189 12.867 19.8189 13.1109C19.8189 13.3549 19.5749 13.5988 19.331 13.5988C19.2091 13.5988 18.9651 13.5378 18.5992 13.4159C18.9042 13.5378 19.2091 13.5988 19.331 13.6598C19.5749 13.7817 19.6359 14.0866 19.514 14.3306C19.392 14.5745 19.0871 14.6355 18.8432 14.5135C18.7822 14.4525 18.5383 14.2696 18.2943 14.0257C18.5383 14.2696 18.7212 14.5135 18.7822 14.5745C18.9042 14.8184 18.8432 15.1233 18.5992 15.2453C18.3553 15.3673 18.0504 15.3063 17.9285 15.0623C17.8675 14.9404 17.8065 14.6355 17.6845 14.3306C17.7455 14.6355 17.8675 14.9404 17.8675 15.0623C17.8675 15.3063 17.6236 15.5502 17.3796 15.5502C17.1357 15.5502 16.8918 15.3063 16.8918 15.0623C16.8918 14.9404 16.9528 14.6965 17.0747 14.3306C16.9528 14.6355 16.8918 14.9404 16.8308 15.0623C16.7088 15.5502 16.5869 16.038 16.5869 16.16C16.5869 16.5869 16.9528 16.9528 17.3796 16.9528C17.8065 16.9528 18.1724 16.5869 18.1724 16.16C18.1724 15.9771 18.0504 15.5502 17.9285 15.0014C18.0504 15.5502 18.2334 15.9771 18.2943 16.099C18.4773 16.4649 18.9651 16.5869 19.331 16.4039C19.6969 16.221 19.8799 15.7331 19.6359 15.3673C19.5749 15.2453 19.2091 14.8794 18.8432 14.5135C19.2091 14.8794 19.5749 15.2453 19.6969 15.3063C20.0628 15.5502 20.5506 15.3673 20.7336 15.0014C20.9165 14.6355 20.8556 14.1476 20.4287 13.9647C20.3067 13.9037 19.8189 13.7817 19.27 13.5988C19.8189 13.7208 20.2457 13.8427 20.4287 13.8427C20.8556 13.8427 21.2214 13.4768 21.2214 13.05C21.2214 12.6841 20.8556 12.3182 20.4287 12.3182ZM16.8918 14.0257C16.7698 13.9647 16.7698 13.8427 16.8308 13.7208C16.8308 13.6598 16.9528 13.5988 17.0137 13.4768C16.8918 13.5988 16.8308 13.6598 16.7698 13.6598C16.6479 13.7208 16.5259 13.6598 16.4649 13.5988C16.4039 13.4768 16.4649 13.3549 16.5259 13.2939C16.5869 13.2939 16.7088 13.2329 16.8308 13.1719C16.7088 13.2329 16.5869 13.2329 16.5259 13.2329C16.4039 13.2329 16.3429 13.1719 16.3429 13.05C16.3429 12.928 16.4039 12.867 16.5259 12.867C16.5869 12.867 16.7088 12.928 16.8308 12.928C16.7088 12.867 16.5869 12.867 16.5259 12.806C16.4039 12.7451 16.4039 12.6231 16.4649 12.5011C16.5259 12.3792 16.6479 12.3792 16.7698 12.4402C16.8308 12.4402 16.8918 12.5621 17.0137 12.6231C16.8918 12.5011 16.8308 12.4402 16.8308 12.3792C16.7698 12.2572 16.8308 12.1353 16.8918 12.0743C17.0137 12.0133 17.1357 12.0743 17.1967 12.1353C17.1967 12.1962 17.2577 12.3182 17.3186 12.4402C17.2577 12.3182 17.2577 12.1962 17.2577 12.1353C17.2577 12.0133 17.3186 11.9523 17.4406 11.9523C17.5626 11.9523 17.6235 12.0133 17.6235 12.1353C17.6235 12.1962 17.5626 12.3182 17.5626 12.4402C17.6235 12.3182 17.6236 12.1962 17.6845 12.1353C17.7455 12.0133 17.8675 12.0133 17.9894 12.0743C18.1114 12.1353 18.1114 12.2572 18.0504 12.3792C18.0504 12.4402 17.9285 12.5011 17.8675 12.6231C17.9894 12.5011 18.0504 12.4402 18.1114 12.4402C18.2334 12.3792 18.3553 12.4402 18.4163 12.5011C18.4773 12.6231 18.4163 12.7451 18.3553 12.806C18.2943 12.806 18.1724 12.867 18.0504 12.928C18.1724 12.867 18.2943 12.867 18.3553 12.867C18.4773 12.867 18.5383 12.928 18.5383 13.05C18.5383 13.1719 18.4773 13.2329 18.3553 13.2329C18.2943 13.2329 18.1724 13.1719 18.0504 13.1719C18.1724 13.2329 18.2943 13.2329 18.3553 13.2939C18.4773 13.3549 18.4773 13.4768 18.4163 13.5988C18.3553 13.7208 18.2334 13.7208 18.1114 13.6598C18.0504 13.6598 17.9894 13.5378 17.8675 13.4768C17.9894 13.5988 18.0504 13.6598 18.0504 13.7208C18.1114 13.8427 18.0504 13.9647 17.9894 14.0257C17.8675 14.0866 17.7455 14.0257 17.6845 13.9647C17.6845 13.9037 17.6235 13.7817 17.5626 13.6598C17.6235 13.7817 17.6235 13.9037 17.6235 13.9647C17.6235 14.0866 17.5626 14.1476 17.4406 14.1476C17.3186 14.1476 17.2577 14.0866 17.2577 13.9647C17.2577 13.9037 17.3186 13.7817 17.3186 13.6598C17.2577 13.7817 17.2577 13.9037 17.1967 13.9647C17.0747 14.0257 16.9528 14.0866 16.8918 14.0257ZM17.0747 13.6598C17.1357 13.7208 17.1967 13.6598 17.2577 13.5988C17.2577 13.6598 17.3186 13.7208 17.3796 13.7208C17.4406 13.7208 17.5016 13.6598 17.5016 13.5988C17.5016 13.5988 17.5016 13.4768 17.4406 13.4159C17.4406 13.4768 17.5016 13.5988 17.5016 13.5988C17.5016 13.6598 17.6236 13.6598 17.6845 13.6598C17.7455 13.5988 17.7455 13.5378 17.7455 13.4768C17.8065 13.5378 17.8675 13.4768 17.9285 13.4159C17.9894 13.3549 17.9285 13.2939 17.8675 13.2329C17.9285 13.2329 17.9894 13.1719 17.9894 13.1109C17.9894 13.05 17.9285 12.989 17.8675 12.989C17.8675 12.989 17.7455 12.989 17.6845 13.05C17.7455 13.05 17.8675 12.989 17.8675 12.989C17.9285 12.989 17.9285 12.867 17.9285 12.806C17.8675 12.7451 17.8065 12.7451 17.7455 12.7451C17.8065 12.6841 17.7455 12.6231 17.6845 12.5621C17.6236 12.5011 17.5626 12.5621 17.5016 12.6231C17.5016 12.5621 17.4406 12.5011 17.3796 12.5011C17.3186 12.5011 17.2577 12.5621 17.2577 12.6231C17.2577 12.6231 17.2577 12.7451 17.3186 12.806C17.3186 12.7451 17.2577 12.6231 17.2577 12.6231C17.2577 12.5621 17.1357 12.5621 17.0747 12.5621C17.0137 12.6231 17.0137 12.6841 17.0137 12.7451C16.9528 12.6841 16.8918 12.7451 16.8308 12.806C16.7698 12.867 16.8308 12.928 16.8918 12.989C16.8308 12.989 16.7698 13.05 16.7698 13.1109C16.7698 13.1719 16.8308 13.2329 16.8918 13.2329C16.8918 13.2329 17.0137 13.2329 17.0747 13.1719C17.0137 13.1719 16.8918 13.2329 16.8918 13.2329C16.8308 13.2329 16.8308 13.3549 16.8308 13.4159C16.8918 13.4768 16.9528 13.4768 17.0137 13.4768C17.0137 13.5378 17.0137 13.6598 17.0747 13.6598Z" fill="#f6cda2"/>
<path fill-rule="evenodd" clip-rule="evenodd" d="M54.883 36.0399C54.883 37.8693 53.4195 39.4548 51.5901 39.3328C50.9193 39.2719 48.9069 38.845 46.6506 38.2352C48.9069 38.845 50.8583 39.4548 51.4681 39.7597C53.1146 40.5525 53.6024 42.6868 52.6877 44.2113C51.773 45.7968 49.6996 46.4067 48.1751 45.431C47.6263 45.0651 46.1018 43.6625 44.4553 42.016C46.1018 43.6625 47.5043 45.187 47.8702 45.7359C48.9069 47.2604 48.2361 49.2728 46.6506 50.1875C45.0651 51.1022 42.9307 50.6144 42.138 48.9679C41.8331 48.3581 41.2233 46.4067 40.6135 44.1504C41.1623 46.4067 41.6501 48.3581 41.7111 49.0898C41.8331 50.9193 40.2476 52.3828 38.4181 52.3828C36.5887 52.3828 35.0032 50.9193 35.1251 49.0898C35.1861 48.419 35.674 46.4067 36.2228 44.1504C35.613 46.3457 35.0032 48.3581 34.6983 48.9679C33.9055 50.6144 31.7712 51.0412 30.1857 50.1875C28.6002 49.2728 27.9294 47.1994 28.966 45.7359C29.3319 45.187 30.7345 43.6625 32.381 42.016C30.7345 43.6015 29.21 45.0041 28.6611 45.431C27.1366 46.4676 25.0633 45.7968 24.1485 44.2113C23.2338 42.6258 23.7217 40.5525 25.3682 39.7597C25.978 39.4548 27.9904 38.845 30.1857 38.2352C27.9294 38.784 25.917 39.2719 25.2462 39.3328C23.4168 39.4548 21.9532 37.8693 21.9532 36.0399C21.9532 34.2104 23.4168 32.6249 25.2462 32.7469C25.917 32.8079 27.9294 33.2347 30.1857 33.8445C27.9294 33.2347 25.978 32.6249 25.3682 32.32C23.7217 31.5273 23.2338 29.3929 24.1485 27.8684C25.0633 26.2829 27.1366 25.6731 28.6611 26.6488C29.21 27.0147 30.7345 28.4172 32.381 30.0637C30.7345 28.4172 29.3319 26.8927 28.966 26.3439C27.9294 24.8193 28.6002 22.807 30.1857 21.8922C31.7712 20.9775 33.9055 21.4654 34.6983 23.1119C35.0032 23.7217 35.613 25.6731 36.2228 27.9294C35.674 25.6731 35.1861 23.7217 35.1251 22.9899C35.0032 21.1605 36.5887 19.6969 38.4181 19.6969C40.2476 19.6969 41.8331 21.1605 41.7111 22.9899C41.6501 23.6607 41.1623 25.6731 40.6135 27.9294C41.2233 25.734 41.8331 23.7217 42.138 23.1119C42.9307 21.4654 45.0651 21.0385 46.6506 21.8922C48.2361 22.807 48.9069 24.8803 47.8702 26.3439C47.5043 26.8927 46.1018 28.4172 44.4553 30.0637C46.1018 28.4782 47.6263 27.0756 48.1751 26.6488C49.6996 25.6121 51.773 26.2829 52.6877 27.8684C53.6024 29.4539 53.1146 31.5273 51.4681 32.32C50.8583 32.6249 48.8459 33.2347 46.6506 33.8445C48.9069 33.2957 50.9193 32.8079 51.5901 32.7469C53.4195 32.6249 54.883 34.2104 54.883 36.0399ZM46.5286 34.0275C46.1018 34.0275 44.8821 34.3324 43.4796 34.6983C44.8211 34.3324 46.0408 33.9665 46.4067 33.7836C47.3824 33.2957 47.6873 32.0151 47.1384 31.0394C46.5896 30.0637 45.309 29.6978 44.3943 30.3076C44.0284 30.5516 43.1137 31.4053 42.138 32.381C43.1137 31.3443 44.0284 30.4296 44.2113 30.1247C44.8211 29.21 44.4553 27.9294 43.4796 27.3805C42.5039 26.8317 41.2233 27.1366 40.7354 28.1123C40.5525 28.4782 40.1866 29.6978 39.8207 31.0394C40.1866 29.6978 40.4915 28.4782 40.4915 28.0513C40.5525 26.9537 39.5768 26.039 38.4791 26.039C37.3815 26.039 36.4057 26.9537 36.4667 28.0513C36.4667 28.4782 36.7716 29.6978 37.1375 31.0394C36.7716 29.6978 36.4057 28.4782 36.2228 28.1123C35.735 27.1366 34.4544 26.8317 33.4787 27.3805C32.503 27.9294 32.1371 29.21 32.7469 30.1247C32.9908 30.4906 33.8445 31.4053 34.8202 32.381C33.7836 31.4053 32.8688 30.5516 32.5639 30.3076C31.6492 29.6978 30.3686 30.0637 29.8198 31.0394C29.271 32.0151 29.5759 33.2957 30.5516 33.7836C30.9174 33.9665 32.1371 34.3324 33.4787 34.6983C32.0761 34.3324 30.8565 34.0885 30.4296 34.0275C29.3319 33.9665 28.4172 34.9422 28.4172 36.0399C28.4172 37.1375 29.3319 38.1132 30.4296 38.0522C30.8565 38.0522 32.0761 37.7473 33.4787 37.3815C32.1371 37.7473 30.9174 38.1132 30.5516 38.2962C29.5759 38.784 29.271 40.0646 29.8198 41.0403C30.3686 42.016 31.6492 42.3819 32.5639 41.7721C32.9298 41.5282 33.8445 40.6744 34.8202 39.6987C33.8445 40.7354 32.9908 41.6501 32.7469 41.955C32.1371 42.8698 32.503 44.1504 33.4787 44.6992C34.4544 45.248 35.735 44.9431 36.2228 43.9674C36.4057 43.6015 36.7716 42.3819 37.1375 41.0403C36.7716 42.3819 36.4667 43.6015 36.4667 44.0284C36.4057 45.1261 37.3815 46.0408 38.4791 46.0408C39.5768 46.0408 40.5525 45.1261 40.4915 44.0284C40.4915 43.6015 40.1866 42.3819 39.8207 41.0403C40.1866 42.3819 40.5525 43.6015 40.7354 43.9674C41.2233 44.9431 42.5039 45.248 43.4796 44.6992C44.4553 44.1504 44.8211 42.8698 44.2113 41.955C43.9674 41.5892 43.1137 40.6744 42.138 39.6987C43.1747 40.6744 44.0894 41.5282 44.3943 41.7721C45.309 42.3819 46.5896 42.016 47.1384 41.0403C47.6873 40.0646 47.3824 38.784 46.4067 38.2962C46.0408 38.1132 44.8211 37.7473 43.4796 37.3815C44.8821 37.7473 46.1018 37.9913 46.5286 38.0522C47.6263 38.1132 48.541 37.1375 48.541 36.0399C48.541 34.9422 47.6263 33.9665 46.5286 34.0275ZM44.7602 37.5644C44.4553 37.5644 43.4796 37.3205 42.3819 37.0156C43.4796 37.3205 44.3943 37.6254 44.6992 37.7473C45.4919 38.1132 45.7359 39.1499 45.248 39.8817C44.8211 40.6135 43.8455 40.9184 43.1137 40.4305C42.8698 40.2476 42.138 39.5768 41.3452 38.784C42.138 39.5768 42.8088 40.3085 42.9917 40.5525C43.4796 41.2842 43.1747 42.2599 42.4429 42.6868C41.7111 43.1137 40.6744 42.8698 40.3085 42.138C40.1866 41.8331 39.8817 40.9184 39.5768 39.8207C39.8817 40.9184 40.0646 41.8331 40.1256 42.199C40.1866 43.0527 39.3938 43.7845 38.5401 43.7845C37.6864 43.7845 36.8936 43.1137 36.9546 42.199C36.9546 41.8941 37.1985 40.9184 37.5034 39.8207C37.1985 40.8574 36.8936 41.8331 36.7716 42.138C36.4057 42.9307 35.3691 43.1137 34.6373 42.6868C33.9055 42.2599 33.6006 41.2842 34.0885 40.5525C34.2714 40.3085 34.9422 39.5768 35.735 38.784C34.9422 39.5768 34.2104 40.2476 33.9665 40.4305C33.2347 40.9184 32.259 40.6135 31.8322 39.8817C31.4053 39.1499 31.6492 38.1132 32.381 37.7473C32.6859 37.6254 33.6006 37.3205 34.6983 37.0156C33.6006 37.2595 32.6859 37.5034 32.32 37.5644C31.4663 37.6254 30.7345 36.8326 30.7345 35.9789C30.7345 35.1251 31.4663 34.3324 32.32 34.3934C32.6249 34.3934 33.6006 34.6373 34.6983 34.9422C33.6006 34.6373 32.6859 34.3324 32.381 34.2104C31.5882 33.8445 31.3443 32.8079 31.8322 32.0761C32.259 31.3443 33.2347 31.0394 33.9665 31.5273C34.2104 31.7102 34.9422 32.381 35.735 33.1738C34.9422 32.381 34.2714 31.6492 34.0885 31.4053C33.6006 30.6735 33.9055 29.6978 34.6373 29.271C35.3691 28.8441 36.4057 29.088 36.7716 29.8198C36.8936 30.1247 37.1985 31.0394 37.5034 32.1371C37.2595 31.0394 37.0156 30.1247 36.9546 29.7588C36.8936 28.9051 37.6864 28.1733 38.5401 28.1733C39.3938 28.1733 40.1866 28.8441 40.1256 29.7588C40.1256 30.0637 39.8817 31.0394 39.5768 32.1371C39.8817 31.1004 40.1866 30.1247 40.3085 29.8198C40.6744 29.027 41.7111 28.8441 42.4429 29.271C43.1747 29.6978 43.4796 30.6735 42.9917 31.4053C42.8088 31.6492 42.138 32.381 41.3452 33.1738C42.138 32.381 42.8698 31.7102 43.1137 31.5273C43.8455 31.0394 44.8211 31.3443 45.248 32.0761C45.6749 32.8079 45.431 33.8445 44.6992 34.2104C44.3943 34.3324 43.4796 34.6373 42.3819 34.9422C43.4796 34.6983 44.3943 34.4544 44.7602 34.3934C45.6139 34.3324 46.3457 35.1251 46.3457 35.9789C46.3457 36.8936 45.6139 37.6254 44.7602 37.5644ZM36.0399 40.1866C36.5277 40.4305 37.1375 40.3085 37.3814 39.8207C37.4424 39.6378 37.6254 39.0889 37.8083 38.4791C37.6254 38.723 37.2595 38.845 37.0156 38.6621C36.7107 38.4791 36.5887 38.1132 36.7716 37.8693C36.8326 37.7473 37.0765 37.5034 37.3814 37.1985C37.0765 37.5034 36.7716 37.7473 36.7107 37.8083C36.7107 37.8083 36.6497 37.8083 36.6497 37.8693C36.2228 38.3571 35.7959 38.723 35.674 38.906C35.3691 39.2719 35.613 39.8817 36.0399 40.1866ZM38.1132 37.5644C38.1132 37.7473 38.2962 37.9303 38.4791 37.9303C38.6621 37.9303 38.845 37.7473 38.845 37.5644C38.845 37.5034 38.784 37.2595 38.723 37.0156C38.784 37.2595 38.845 37.5034 38.906 37.5644C38.967 37.7473 39.2109 37.8083 39.3938 37.6864C39.5768 37.5644 39.6378 37.3814 39.5158 37.1985C39.4548 37.1375 39.3328 36.9546 39.1499 36.7716C39.3328 36.9546 39.5158 37.1375 39.5768 37.1375C39.7597 37.2595 40.0036 37.1985 40.0646 37.0156C40.1866 36.8326 40.1256 36.5887 39.9427 36.5277C39.8817 36.4667 39.6378 36.4058 39.3938 36.3448C39.6378 36.4058 39.8817 36.4667 39.9427 36.4667C40.1256 36.4667 40.3085 36.2838 40.3085 36.1008C40.3085 35.9179 40.1256 35.735 39.9427 35.735C39.8817 35.735 39.6378 35.7959 39.3938 35.8569C39.6378 35.7959 39.8817 35.735 39.9427 35.674C40.1256 35.613 40.1866 35.3691 40.0646 35.1861C39.9427 35.0032 39.7597 34.9422 39.5768 35.0642C39.5158 35.1251 39.3328 35.2471 39.1499 35.4301C39.3328 35.2471 39.5158 35.0642 39.5158 35.0032C39.6378 34.8202 39.5768 34.5763 39.3938 34.5153C39.2109 34.3934 38.967 34.4544 38.906 34.6373C38.845 34.6983 38.784 34.9422 38.723 35.1861C38.784 34.9422 38.845 34.6983 38.845 34.6373C38.845 34.4544 38.6621 34.2714 38.4791 34.2714C38.2962 34.2714 38.1132 34.4544 38.1132 34.6373C38.1132 34.6983 38.1742 34.9422 38.2352 35.1861C38.1742 34.9422 38.1132 34.6983 38.0522 34.6373C37.9913 34.4544 37.7473 34.3934 37.5644 34.4544C37.3815 34.5763 37.3205 34.7593 37.4424 34.9422C37.5034 35.0032 37.6254 35.1861 37.8083 35.3691C37.6254 35.1861 37.4424 35.0032 37.3814 35.0032C37.1985 34.8812 36.9546 34.9422 36.8936 35.1251C36.7716 35.3081 36.8326 35.552 37.0156 35.613C37.0765 35.674 37.3205 35.735 37.5644 35.7959C37.3205 35.735 37.0765 35.674 37.0156 35.674C36.8326 35.674 36.6497 35.8569 36.6497 36.0399C36.6497 36.2228 36.8326 36.4057 37.0156 36.4057C37.0765 36.4057 37.3205 36.3448 37.5644 36.2838C37.3205 36.3448 37.0765 36.4058 37.0156 36.4667C36.8326 36.5277 36.7716 36.7716 36.8936 36.9546C37.0156 37.1375 37.1985 37.1985 37.3814 37.0765C37.4424 37.0156 37.6254 36.8936 37.8083 36.7107C37.6254 36.8936 37.4424 37.0765 37.4424 37.1375C37.3205 37.3205 37.3815 37.5644 37.5644 37.6254C37.7473 37.7473 37.9913 37.6864 38.1132 37.5644C38.1132 37.5034 38.1742 37.2595 38.2352 37.0156C38.1742 37.2595 38.1132 37.4424 38.1132 37.5644ZM34.2714 38.4181C34.5153 38.906 35.1251 39.0889 35.613 38.784C35.7959 38.6621 36.1618 38.2962 36.6497 37.8693C36.4058 37.9913 36.0399 37.8693 35.9179 37.6254C35.735 37.3205 35.8569 36.9546 36.1618 36.8326C36.2838 36.7716 36.6497 36.6497 37.0765 36.5277C36.6497 36.6497 36.2838 36.7107 36.1618 36.7107H36.1008C35.4301 36.8936 34.8812 37.0765 34.6983 37.1375C34.1494 37.3205 34.0275 37.9303 34.2714 38.4181ZM38.4791 31.2224C37.9303 31.2224 37.5034 31.6492 37.5034 32.1981C37.5034 32.381 37.6864 32.9908 37.8083 33.6616C37.6254 32.9908 37.4424 32.442 37.3814 32.259C37.1375 31.7712 36.5277 31.6492 36.0399 31.8931C35.552 32.1371 35.3691 32.7469 35.674 33.1738C35.7959 33.3567 36.2228 33.7836 36.6497 34.2714C36.1618 33.7836 35.735 33.4177 35.552 33.2957C35.1251 32.9908 34.5153 33.1738 34.2104 33.6616C33.9665 34.1494 34.0885 34.7593 34.5763 34.9422C34.7593 35.0032 35.3081 35.1861 35.9789 35.3691C35.3081 35.1861 34.7593 35.0642 34.5153 35.0642C33.9665 35.0032 33.5396 35.491 33.5396 36.0399C33.5396 36.5887 33.9665 37.0156 34.5153 37.0156C34.6983 37.0156 35.3081 36.8936 35.9179 36.7107C35.613 36.7107 35.3691 36.4057 35.3691 36.1008C35.3691 35.7959 35.613 35.491 35.9789 35.491C36.1008 35.491 36.4667 35.613 36.8936 35.674C36.4667 35.552 36.1008 35.4301 35.9789 35.3691C35.674 35.2471 35.613 34.8202 35.735 34.5763C35.9179 34.2714 36.2838 34.1494 36.5887 34.3324C36.7107 34.3934 36.9546 34.6373 37.2595 34.9422C36.9546 34.6373 36.7107 34.3934 36.6497 34.2714C36.4667 33.9665 36.5887 33.6006 36.8936 33.4787C37.1985 33.2957 37.5644 33.4177 37.7473 33.7226C37.8083 33.8445 37.9303 34.2104 38.0522 34.5763C37.9303 34.1494 37.8693 33.7836 37.8693 33.6616C37.8693 33.3567 38.1132 33.0518 38.4791 33.0518C38.784 33.0518 39.0889 33.2957 39.0889 33.6006C39.2719 32.9298 39.3938 32.381 39.3938 32.1981C39.4548 31.6492 38.967 31.2224 38.4791 31.2224ZM40.8574 31.8931C40.3695 31.6492 39.7597 31.7712 39.5158 32.259C39.4548 32.442 39.2719 32.9908 39.0889 33.6616V33.7226C39.0889 33.8445 38.967 34.2104 38.906 34.6373C39.0279 34.2104 39.1499 33.8445 39.2109 33.7836C39.3328 33.4787 39.7597 33.4177 40.0646 33.5396C40.3085 33.6616 40.4305 34.0275 40.3085 34.2714C40.7354 33.7836 41.1623 33.4177 41.2842 33.2347C41.5282 32.7469 41.3452 32.1371 40.8574 31.8931ZM42.6258 33.6616C42.3819 33.1738 41.7721 32.9908 41.2842 33.2957C41.1013 33.4177 40.7354 33.7836 40.2476 34.2714C40.2476 34.2714 40.2476 34.3324 40.1866 34.3324C40.1256 34.4544 39.8817 34.6983 39.5768 35.0032C39.8817 34.6983 40.1866 34.4544 40.2476 34.3934C40.5525 34.2104 40.9184 34.3324 41.1013 34.6373C41.2842 34.8812 41.1623 35.2471 40.9184 35.4301C41.5282 35.2471 42.077 35.0642 42.2599 35.0032C42.7478 34.6983 42.8698 34.0885 42.6258 33.6616ZM42.3209 35.0642C42.138 35.0642 41.5891 35.1861 40.9184 35.3691C40.9184 35.3691 40.9184 35.3691 40.8574 35.3691C40.7354 35.4301 40.3695 35.552 39.9427 35.674C40.3695 35.552 40.7354 35.491 40.8574 35.491C41.1623 35.491 41.4672 35.735 41.4672 36.1008C41.4672 36.4057 41.2233 36.7107 40.8574 36.7107C40.7354 36.7107 40.3695 36.5887 39.9427 36.5277C40.3695 36.6497 40.7354 36.7716 40.8574 36.8326C41.1623 36.9546 41.2233 37.3814 41.1013 37.6254C40.9184 37.9303 40.5525 38.0522 40.2476 37.8693C40.1256 37.8083 39.8817 37.5644 39.5768 37.2595C39.8817 37.5644 40.1256 37.8083 40.1866 37.9303C40.3695 38.2352 40.2476 38.6011 39.9427 38.723C39.6377 38.906 39.2719 38.784 39.0889 38.4791C39.0279 38.3571 38.906 37.9913 38.784 37.6254C38.906 38.0522 38.967 38.4181 38.967 38.5401C38.967 38.845 38.723 39.1499 38.3571 39.1499C38.0522 39.1499 37.7473 38.906 37.7473 38.5401C37.7473 38.4181 37.8693 38.0522 37.9303 37.6254C37.8083 38.0522 37.6864 38.4181 37.6254 38.4791C37.6254 38.4791 37.6254 38.4791 37.6254 38.5401C37.4424 39.1499 37.3205 39.6987 37.3205 39.9427C37.2595 40.4915 37.7473 40.9184 38.2962 40.9184C38.845 40.9184 39.2719 40.4915 39.2719 39.9427C39.2719 39.7597 39.0889 39.1499 38.967 38.4791C39.1499 39.1499 39.3328 39.6987 39.3938 39.8817C39.6378 40.3695 40.2476 40.4915 40.7354 40.2476C41.2233 40.0036 41.4062 39.3938 41.1013 38.967C40.9793 38.784 40.5525 38.3571 40.1256 37.8693C40.6134 38.3571 41.0403 38.784 41.2233 38.845C41.6501 39.1499 42.2599 38.967 42.5648 38.4791C42.8088 37.9913 42.6868 37.3814 42.199 37.1985C42.016 37.1375 41.4672 36.9546 40.7964 36.7716C41.4672 36.9546 42.016 37.0765 42.2599 37.0765C42.8088 37.1375 43.2356 36.6497 43.2356 36.1008C43.2356 35.491 42.8088 35.0032 42.3209 35.0642ZM37.8693 37.1375C37.7473 37.0765 37.6864 36.8936 37.7473 36.7716C37.7473 36.7107 37.8693 36.5887 37.9913 36.4667C37.8693 36.5887 37.7473 36.7107 37.6864 36.7107C37.5644 36.7716 37.3814 36.7107 37.3205 36.5887C37.2595 36.4667 37.2595 36.2838 37.4424 36.2228C37.5034 36.2228 37.6254 36.1618 37.8083 36.1008C37.6254 36.1618 37.5034 36.1618 37.4424 36.1618C37.3205 36.1618 37.1985 36.0399 37.1985 35.9179C37.1985 35.7959 37.3205 35.674 37.4424 35.674C37.5034 35.674 37.6254 35.735 37.8083 35.735C37.6254 35.674 37.5034 35.613 37.4424 35.613C37.3205 35.552 37.2595 35.3691 37.3205 35.2471C37.3814 35.1251 37.5644 35.0642 37.6864 35.1251C37.7473 35.1251 37.8693 35.2471 37.9913 35.3691C37.8693 35.2471 37.7473 35.1251 37.7473 35.0642C37.6864 34.9422 37.7473 34.7593 37.8693 34.6983C37.9913 34.6373 38.1742 34.6373 38.2352 34.8202C38.2352 34.8812 38.2962 35.0032 38.3571 35.1861C38.2962 35.0032 38.2962 34.8812 38.2962 34.8202C38.2962 34.6983 38.4181 34.5763 38.5401 34.5763C38.6621 34.5763 38.784 34.6983 38.784 34.8202C38.784 34.8812 38.723 35.0032 38.723 35.1861C38.784 35.0032 38.845 34.8812 38.845 34.8202C38.906 34.6983 39.0889 34.6373 39.2109 34.6983C39.3328 34.7593 39.3938 34.9422 39.3328 35.0642C39.3328 35.1251 39.2109 35.2471 39.0889 35.3691C39.2109 35.2471 39.3328 35.1251 39.3938 35.1251C39.5158 35.0642 39.6987 35.1251 39.7597 35.2471C39.8207 35.3691 39.8207 35.552 39.6377 35.613C39.5768 35.613 39.4548 35.674 39.2719 35.735C39.4548 35.674 39.5768 35.674 39.6377 35.674C39.7597 35.674 39.8817 35.7959 39.8817 35.9179C39.8817 36.0399 39.7597 36.1618 39.6377 36.1618C39.5768 36.1618 39.4548 36.1008 39.2719 36.1008C39.4548 36.1618 39.5768 36.2228 39.6377 36.2228C39.7597 36.2838 39.8207 36.4667 39.7597 36.5887C39.6987 36.7107 39.5158 36.7716 39.3938 36.7107C39.3328 36.7107 39.2109 36.5887 39.0889 36.4667C39.2109 36.5887 39.3328 36.7107 39.3328 36.7716C39.3938 36.8936 39.3328 37.0765 39.2109 37.1375C39.0889 37.1985 38.906 37.1985 38.845 37.0156C38.845 36.9546 38.784 36.8326 38.723 36.6497C38.784 36.8326 38.784 36.9546 38.784 37.0156C38.784 37.1375 38.6621 37.2595 38.5401 37.2595C38.4181 37.2595 38.2962 37.1375 38.2962 37.0156C38.2962 36.9546 38.3571 36.8326 38.3571 36.6497C38.2962 36.8326 38.2352 36.9546 38.2352 37.0156C38.1742 37.1985 37.9913 37.2595 37.8693 37.1375ZM38.1132 36.7107C38.1742 36.7716 38.2962 36.7107 38.2962 36.6497C38.2962 36.6497 38.3571 36.5277 38.3571 36.4057C38.3571 36.5277 38.2962 36.5887 38.2962 36.6497C38.2962 36.7107 38.3571 36.8326 38.4791 36.8326C38.5401 36.8326 38.6621 36.7716 38.6621 36.6497C38.6621 36.5887 38.6621 36.5277 38.6011 36.4057C38.6011 36.5277 38.6621 36.5887 38.6621 36.6497C38.723 36.7107 38.784 36.7716 38.845 36.7107C38.906 36.6497 38.967 36.5887 38.906 36.5277C38.906 36.5277 38.845 36.4058 38.723 36.3448C38.784 36.4058 38.845 36.4667 38.906 36.5277C38.967 36.5887 39.0889 36.5277 39.0889 36.4667C39.1499 36.4058 39.0889 36.2838 39.0279 36.2838C39.0279 36.2838 38.906 36.2228 38.784 36.2228C38.906 36.2228 38.967 36.2838 39.0279 36.2838C39.0889 36.2838 39.2109 36.2228 39.2109 36.1008C39.2109 36.0399 39.1499 35.9179 39.0279 35.9179C38.967 35.9179 38.906 35.9179 38.784 35.9789C38.906 35.9789 38.967 35.9179 39.0279 35.9179C39.0889 35.8569 39.1499 35.7959 39.0889 35.735C39.0279 35.674 38.967 35.613 38.906 35.674C38.906 35.674 38.784 35.735 38.723 35.8569C38.784 35.7959 38.845 35.735 38.906 35.674C38.967 35.613 38.906 35.491 38.845 35.491C38.784 35.4301 38.6621 35.491 38.6621 35.552C38.6621 35.552 38.6011 35.674 38.6011 35.7959C38.6011 35.674 38.6621 35.613 38.6621 35.552C38.6621 35.491 38.6011 35.3691 38.4791 35.3691C38.4181 35.3691 38.2962 35.4301 38.2962 35.552C38.2962 35.613 38.2962 35.674 38.3571 35.7959C38.3571 35.674 38.2962 35.613 38.2962 35.552C38.2352 35.491 38.1742 35.4301 38.1132 35.491C38.0522 35.552 37.9913 35.613 38.0522 35.674C38.0522 35.674 38.1132 35.7959 38.2352 35.8569C38.1742 35.7959 38.1132 35.735 38.0522 35.674C37.9913 35.613 37.8693 35.674 37.8693 35.735C37.8083 35.7959 37.8693 35.9179 37.9303 35.9179C37.9303 35.9179 38.0522 35.9789 38.1742 35.9789C38.0522 35.9789 37.9913 35.9179 37.9303 35.9179C37.8693 35.9179 37.7473 35.9789 37.7473 36.1008C37.7473 36.1618 37.8083 36.2838 37.9303 36.2838C37.9913 36.2838 38.0522 36.2838 38.1742 36.2228C38.0522 36.2228 37.9913 36.2838 37.9303 36.2838C37.8693 36.3448 37.8083 36.4058 37.8693 36.4667C37.9303 36.5277 37.9913 36.5887 38.0522 36.5277C38.0522 36.5277 38.1742 36.4667 38.2352 36.3448C38.1742 36.4058 38.1132 36.4667 38.0522 36.5277C37.9913 36.5887 38.0522 36.7107 38.1132 36.7107Z" fill="#f6cda2"/>
<path fill-rule="evenodd" clip-rule="evenodd" d="M21.0995 36.2838C21.0995 37.4424 20.1848 38.4181 19.0261 38.3571C18.5993 38.3571 17.3186 38.0522 15.9161 37.6864C17.3186 38.0522 18.5993 38.4791 18.9651 38.6621C20.0018 39.1499 20.3067 40.4915 19.6969 41.4672C19.1481 42.4429 17.8065 42.8698 16.8308 42.199C16.4649 41.955 15.5502 41.0403 14.4525 40.0646C15.4892 41.1013 16.4039 42.077 16.5869 42.3819C17.2577 43.3576 16.8308 44.6382 15.7941 45.187C14.8184 45.7359 13.4768 45.431 12.928 44.4553C12.7451 44.0894 12.3792 42.8088 11.9523 41.4062C12.3182 42.8088 12.6231 44.0894 12.6231 44.5162C12.6841 45.6749 11.7084 46.5896 10.5497 46.5896C9.3911 46.5896 8.4154 45.6749 8.47638 44.5162C8.47638 44.0894 8.78129 42.8088 9.14717 41.4062C8.72031 42.8088 8.35442 44.0284 8.17148 44.4553C7.68363 45.4919 6.34204 45.7968 5.30536 45.187C4.32966 44.6382 3.90279 43.2966 4.51261 42.3819C4.75653 42.016 5.67125 41.1013 6.64695 40.0646C5.61027 41.1013 4.63457 41.955 4.26868 42.199C3.29298 42.8088 2.01238 42.4429 1.40257 41.4672C0.853736 40.4915 1.09766 39.1499 2.13434 38.6621C2.50023 38.4791 3.78083 38.1132 5.1834 37.6864C3.78083 38.0522 2.50023 38.3571 2.07336 38.3571C0.914718 38.4181 0 37.4424 0 36.2838C0 35.1251 0.914718 34.1494 2.07336 34.2104C2.50023 34.2104 3.78083 34.5153 5.1834 34.8812C3.78083 34.5153 2.50023 34.0885 2.13434 33.9055C1.09766 33.4177 0.792755 32.0761 1.40257 31.1004C1.9514 30.1247 3.29298 29.6978 4.26868 30.3686C4.63457 30.6125 5.54929 31.4663 6.64695 32.503C5.61027 31.4663 4.75653 30.4906 4.51261 30.1857C3.84181 29.21 4.26868 27.9294 5.30536 27.3805C6.28106 26.8317 7.62265 27.1366 8.17148 28.1123C8.35442 28.4782 8.72031 29.7588 9.14717 31.1614C8.78129 29.7588 8.47638 28.4782 8.47638 28.0513C8.4154 26.8927 9.3911 25.978 10.5497 25.978C11.7084 25.978 12.6841 26.8927 12.6231 28.0513C12.6231 28.4782 12.3182 29.7588 11.9523 31.1614C12.3792 29.7588 12.7451 28.5392 12.928 28.1123C13.4159 27.0756 14.7574 26.7707 15.7941 27.3805C16.7698 27.9294 17.1967 29.271 16.5869 30.1857C16.343 30.5516 15.4282 31.4663 14.4525 32.503C15.4892 31.4663 16.4649 30.6125 16.8308 30.3686C17.8065 29.7588 19.0871 30.1247 19.6969 31.1004C20.2457 32.0761 20.0018 33.4177 18.9651 33.9055C18.5993 34.0885 17.3186 34.4544 15.9161 34.8812C17.3186 34.5153 18.5993 34.2104 19.0261 34.2104C20.1238 34.1494 21.0995 35.1251 21.0995 36.2838ZM15.7941 35.0032C15.5502 35.0032 14.7574 35.1861 13.9037 35.4301C14.7574 35.1861 15.5502 34.9422 15.7941 34.8202C16.4039 34.5153 16.5869 33.7226 16.282 33.1128C15.9161 32.503 15.1233 32.259 14.5745 32.6249C14.3306 32.7469 13.7817 33.2957 13.1109 33.9665C13.7208 33.3567 14.2696 32.7469 14.4525 32.503C14.8184 31.8931 14.5745 31.1004 13.9647 30.7955C13.3549 30.4296 12.5621 30.6125 12.1962 31.2833C12.0743 31.5273 11.8303 32.259 11.5864 33.1128C11.8303 32.259 12.0133 31.4663 12.0133 31.2224C12.0743 30.5516 11.4645 29.9417 10.7327 29.9417C10.0009 29.9417 9.3911 30.4906 9.45208 31.2224C9.45208 31.4663 9.63502 32.259 9.87895 33.1128C9.63502 32.259 9.3911 31.4663 9.26914 31.2833C8.96423 30.6735 8.11049 30.4906 7.50068 30.7955C6.89087 31.1614 6.64695 31.9541 7.01283 32.503C7.1348 32.7469 7.68363 33.2957 8.35442 33.9665C7.68363 33.3567 7.1348 32.8079 6.89087 32.6249C6.28106 32.259 5.4883 32.503 5.1834 33.1128C4.81751 33.7226 5.00046 34.5153 5.67125 34.8202C5.91517 34.9422 6.64695 35.1861 7.56166 35.4301C6.70793 35.1861 5.91517 35.0032 5.67125 35.0032C4.93947 34.9422 4.39064 35.552 4.39064 36.2838C4.39064 36.9546 4.93947 37.6254 5.67125 37.5644C5.91517 37.5644 6.70793 37.3815 7.56166 37.1375C6.70793 37.3815 5.91517 37.6254 5.67125 37.7473C5.06144 38.0522 4.87849 38.845 5.1834 39.4548C5.54929 40.0646 6.34204 40.3085 6.89087 39.9427C7.1348 39.8207 7.68363 39.2719 8.35442 38.6011C7.74461 39.2109 7.19578 39.8207 7.01283 40.0646C6.64695 40.6134 6.89087 41.4672 7.50068 41.7721C8.11049 42.138 8.90325 41.955 9.26914 41.2842C9.3911 41.0403 9.63502 40.3085 9.87895 39.4548C9.63502 40.3085 9.45208 41.1013 9.45208 41.3452C9.3911 42.016 10.0009 42.6258 10.7327 42.6258C11.4645 42.6258 12.0743 42.077 12.0133 41.3452C12.0133 41.1013 11.8303 40.3085 11.5864 39.4548C11.8303 40.3085 12.0743 41.1013 12.1962 41.2842C12.5011 41.8941 13.3549 42.077 13.9647 41.7721C14.5745 41.4062 14.8184 40.6134 14.4525 40.0646C14.3306 39.8207 13.7817 39.2719 13.1109 38.6011C13.7817 39.2109 14.3306 39.7597 14.5745 39.9427C15.1843 40.3085 15.9771 40.0646 16.282 39.4548C16.6479 38.845 16.4649 38.0522 15.7941 37.7473C15.5502 37.6254 14.8184 37.3815 13.9037 37.1375C14.7574 37.3815 15.5502 37.5644 15.7941 37.5644C16.5259 37.6254 17.0747 37.0156 17.0747 36.2838C17.0137 35.552 16.4649 34.9422 15.7941 35.0032ZM14.6355 37.2595C14.4525 37.2595 13.8427 37.0765 13.1109 36.9546C13.7817 37.1375 14.3916 37.3205 14.5745 37.4424C15.0623 37.6864 15.1843 38.2962 14.9404 38.784C14.6355 39.2719 14.0257 39.4548 13.5988 39.1499C13.4159 39.0279 12.989 38.6011 12.4402 38.1132C12.928 38.6011 13.3549 39.0889 13.4768 39.2109C13.7817 39.6378 13.5988 40.3085 13.1109 40.5525C12.6231 40.7964 12.0133 40.6744 11.7694 40.1866C11.7084 40.0036 11.5254 39.3938 11.2815 38.723C11.4645 39.3938 11.5864 40.0036 11.5864 40.1866C11.6474 40.7354 11.1596 41.1623 10.6107 41.1623C10.0619 41.1623 9.57404 40.7354 9.63502 40.1866C9.63502 40.0036 9.81797 39.3938 9.93993 38.723C9.75699 39.3938 9.57404 40.0036 9.45208 40.1866C9.20816 40.6744 8.53736 40.7964 8.11049 40.5525C7.62265 40.3085 7.4397 39.6378 7.74461 39.2109C7.86657 39.0279 8.29344 38.6011 8.78129 38.1132C8.29344 38.6011 7.80559 39.0279 7.62265 39.1499C7.19578 39.4548 6.52498 39.2719 6.28106 38.784C5.97615 38.2962 6.1591 37.6864 6.64695 37.4424C6.82989 37.3815 7.4397 37.1985 8.11049 36.9546C7.4397 37.1375 6.82989 37.2595 6.58597 37.2595C6.03714 37.3205 5.61027 36.8326 5.61027 36.2838C5.61027 35.735 6.03714 35.2471 6.58597 35.3081C6.76891 35.3081 7.37872 35.491 8.11049 35.613C7.4397 35.4301 6.82989 35.2471 6.64695 35.1251C6.1591 34.8812 6.03713 34.2714 6.28106 33.7836C6.58597 33.2957 7.19578 33.1128 7.62265 33.4177C7.80559 33.5396 8.23246 33.9665 8.78129 34.4544C8.29344 33.9665 7.86657 33.4787 7.74461 33.3567C7.4397 32.9298 7.62265 32.259 8.11049 32.0151C8.59834 31.7712 9.20816 31.8931 9.45208 32.381C9.51306 32.5639 9.696 33.1737 9.93993 33.8445C9.75699 33.1737 9.63502 32.5639 9.63502 32.381C9.57404 31.8322 10.0619 31.4053 10.6107 31.4053C11.1596 31.4053 11.6474 31.8322 11.5864 32.381C11.5864 32.5639 11.4035 33.1737 11.2815 33.8445C11.4645 33.1737 11.6474 32.5639 11.7694 32.381C12.0133 31.8931 12.6841 31.7712 13.1109 32.0151C13.5988 32.259 13.7817 32.9298 13.4768 33.3567C13.3549 33.5396 12.928 33.9665 12.4402 34.4544C12.928 33.9665 13.4159 33.5396 13.5988 33.4177C14.0257 33.1128 14.6965 33.2957 14.9404 33.7836C15.2453 34.2714 15.0623 34.8812 14.5745 35.1251C14.3916 35.1861 13.7817 35.3691 13.1109 35.613C13.7817 35.4301 14.3916 35.3081 14.6355 35.3081C15.1843 35.2471 15.6112 35.735 15.6112 36.2838C15.6722 36.8326 15.1843 37.3205 14.6355 37.2595ZM9.14717 38.906C9.45208 39.0889 9.81797 38.967 10.0009 38.6621C10.0619 38.5401 10.1839 38.2352 10.2448 37.8083C10.1229 37.9913 9.93993 38.0522 9.75699 37.9303C9.57404 37.8083 9.51306 37.5644 9.63502 37.4424C9.696 37.3815 9.81797 37.1985 10.0619 37.0156C9.87895 37.1985 9.696 37.3815 9.63502 37.3815C9.63502 37.3815 9.63502 37.3815 9.57404 37.3815C9.26914 37.6864 9.02521 37.9303 8.96423 38.0522C8.78129 38.3571 8.90325 38.723 9.14717 38.906ZM10.4888 37.1985C10.4888 37.3205 10.6107 37.4424 10.7327 37.4424C10.8546 37.4424 10.9766 37.3205 10.9766 37.1985C10.9766 37.1375 10.9156 37.0156 10.9156 36.8326C10.9766 37.0156 10.9766 37.1375 11.0376 37.1985C11.0986 37.3205 11.2205 37.3205 11.3425 37.2595C11.4645 37.1985 11.5254 37.0765 11.4035 36.9546C11.4035 36.8936 11.2815 36.8326 11.1596 36.7107C11.2815 36.8326 11.4035 36.9546 11.4035 36.9546C11.5254 37.0156 11.6474 36.9546 11.7084 36.8936C11.7694 36.7716 11.7694 36.6497 11.6474 36.5887C11.5864 36.5887 11.4645 36.5277 11.2815 36.4667C11.4645 36.5277 11.5864 36.5277 11.6474 36.5277C11.7694 36.5277 11.8913 36.4058 11.8913 36.2838C11.8913 36.1618 11.7694 36.0399 11.6474 36.0399C11.5864 36.0399 11.4645 36.1008 11.2815 36.1008C11.4645 36.0399 11.5864 36.0399 11.6474 35.9789C11.7694 35.9179 11.7694 35.7959 11.7084 35.674C11.6474 35.552 11.5254 35.491 11.4035 35.613C11.3425 35.613 11.2815 35.735 11.1596 35.8569C11.2815 35.735 11.4035 35.613 11.4035 35.613C11.4645 35.491 11.4035 35.3691 11.3425 35.3081C11.2205 35.2471 11.0986 35.2471 11.0376 35.3691C11.0376 35.4301 10.9766 35.552 10.9156 35.735C10.9766 35.552 10.9766 35.4301 10.9766 35.3691C10.9766 35.2471 10.8546 35.1251 10.7327 35.1251C10.6107 35.1251 10.4888 35.2471 10.4888 35.3691C10.4888 35.4301 10.5497 35.552 10.5497 35.735C10.4888 35.552 10.4888 35.4301 10.4278 35.3691C10.3668 35.2471 10.2448 35.2471 10.1229 35.3081C10.0009 35.3691 9.93993 35.491 10.0619 35.613C10.0619 35.674 10.1839 35.735 10.3058 35.8569C10.1839 35.735 10.0619 35.613 10.0619 35.613C9.93993 35.552 9.81797 35.613 9.75699 35.674C9.696 35.7959 9.696 35.9179 9.81797 35.9789C9.87895 35.9789 10.0009 36.0399 10.1839 36.1008C10.0009 36.0399 9.87895 36.0399 9.81797 36.0399C9.696 36.0399 9.57404 36.1618 9.57404 36.2838C9.57404 36.4058 9.696 36.5277 9.81797 36.5277C9.87895 36.5277 10.0009 36.4667 10.1839 36.4667C10.0009 36.5277 9.87895 36.5277 9.81797 36.5887C9.696 36.6497 9.696 36.7716 9.75699 36.8936C9.81797 37.0156 9.93993 37.0765 10.0619 36.9546C10.1229 36.9546 10.1839 36.8326 10.3058 36.7107C10.1839 36.8326 10.0619 36.9546 10.0619 36.9546C10.0009 37.0765 10.0619 37.1985 10.1229 37.2595C10.2448 37.3814 10.3668 37.3205 10.4888 37.1985C10.4888 37.1375 10.5497 37.0156 10.5497 36.8326C10.4888 37.0156 10.4888 37.1985 10.4888 37.1985ZM8.04951 37.8083C8.23246 38.1132 8.59834 38.2352 8.90325 38.0522C9.02521 37.9913 9.26914 37.7473 9.57404 37.4424C9.3911 37.5034 9.20816 37.4424 9.08619 37.2595C8.96423 37.0765 9.02521 36.8326 9.20815 36.7716C9.26914 36.7107 9.51306 36.6497 9.75699 36.5887C9.51306 36.6497 9.26914 36.7107 9.20815 36.7107C9.20815 36.7107 9.20816 36.7107 9.14717 36.7107C8.72031 36.8326 8.35442 36.9546 8.29344 37.0156C7.98853 37.0765 7.86657 37.5034 8.04951 37.8083ZM10.6717 33.2347C10.3058 33.2347 10.0619 33.4787 10.0619 33.8445C10.0619 33.9665 10.1839 34.3324 10.2448 34.7593C10.1229 34.3324 10.0009 33.9665 9.93993 33.8445C9.81797 33.5396 9.3911 33.4787 9.08619 33.6006C8.78129 33.7836 8.65933 34.1494 8.84227 34.4544C8.90325 34.5763 9.14717 34.8202 9.45208 35.1251C9.14717 34.8202 8.84227 34.5763 8.78129 34.5153C8.47638 34.3324 8.11049 34.4544 7.92755 34.7593C7.74461 35.0642 7.86657 35.4301 8.17148 35.613C8.29344 35.674 8.65933 35.7959 9.08619 35.9179C8.65933 35.7959 8.29344 35.735 8.17148 35.735C7.80559 35.735 7.56166 35.9789 7.56166 36.3448C7.56166 36.6497 7.80559 36.9546 8.17148 36.9546C8.29344 36.9546 8.65933 36.8326 9.08619 36.7716C8.90325 36.7716 8.72031 36.5887 8.72031 36.4057C8.72031 36.2228 8.90325 36.0399 9.08619 36.0399C9.14717 36.0399 9.3911 36.1008 9.63502 36.1618C9.3911 36.1008 9.14717 36.0399 9.08619 35.9789C8.90325 35.8569 8.84227 35.613 8.96423 35.491C9.08619 35.3081 9.33012 35.2471 9.51306 35.3691C9.57404 35.4301 9.75699 35.552 9.93993 35.735C9.75699 35.552 9.57404 35.3691 9.51306 35.3081C9.3911 35.1251 9.45208 34.8812 9.63502 34.8202C9.81797 34.6983 10.0619 34.7593 10.1839 34.9422C10.2448 35.0032 10.3058 35.2471 10.3668 35.491C10.3058 35.2471 10.2448 35.0032 10.2448 34.9422C10.2448 34.7593 10.4278 34.5763 10.6107 34.5763C10.7937 34.5763 10.9766 34.6983 10.9766 34.9422C11.0986 34.5153 11.1596 34.1494 11.1596 34.0275C11.3425 33.5396 11.0376 33.2347 10.6717 33.2347ZM12.1962 33.6616C11.8913 33.4787 11.5254 33.6006 11.3425 33.9055C11.2815 34.0275 11.1596 34.3934 11.0376 34.7593C11.0376 34.7593 11.0376 34.7593 11.0376 34.8202C11.0376 34.8812 10.9766 35.1251 10.9156 35.3691C10.9766 35.1251 11.0376 34.8812 11.0986 34.8202C11.2205 34.6373 11.4645 34.5763 11.6474 34.6983C11.8303 34.8202 11.8913 35.0032 11.8303 35.1861C12.1353 34.8812 12.3792 34.6373 12.4402 34.5153C12.6231 34.2104 12.5011 33.8445 12.1962 33.6616ZM13.2939 34.7593C13.1109 34.4544 12.7451 34.3324 12.4402 34.5153C12.3182 34.5763 12.0743 34.8202 11.7694 35.1251C11.7694 35.1251 11.7694 35.1251 11.7694 35.1861C11.7084 35.2471 11.5864 35.4301 11.3425 35.613C11.5254 35.4301 11.7084 35.2471 11.7694 35.2471C11.9523 35.1251 12.1962 35.1861 12.3182 35.3691C12.4402 35.552 12.3792 35.7959 12.1962 35.8569C12.5621 35.735 12.928 35.613 13.05 35.613C13.4159 35.4301 13.4768 35.0642 13.2939 34.7593ZM13.1109 35.674C12.989 35.674 12.6231 35.735 12.2572 35.8569C12.1962 35.9179 11.9523 35.9789 11.7084 36.0399C11.9523 35.9789 12.1962 35.9179 12.2572 35.9179C12.4402 35.9179 12.6231 36.1008 12.6231 36.2838C12.6231 36.4667 12.4402 36.6497 12.2572 36.6497C12.1962 36.6497 11.9523 36.5887 11.7084 36.5277C11.9523 36.5887 12.1962 36.6497 12.2572 36.7107C12.4402 36.8326 12.5011 37.0765 12.3792 37.1985C12.2572 37.3814 12.0133 37.4424 11.8303 37.3205C11.7694 37.2595 11.5864 37.1375 11.4035 36.9546C11.5864 37.1375 11.7694 37.3205 11.8303 37.3815C11.9523 37.5644 11.8913 37.8083 11.7084 37.8693C11.5254 37.9913 11.2815 37.9303 11.1596 37.7473C11.0986 37.6864 11.0376 37.4424 10.9766 37.1985C11.0376 37.4424 11.0986 37.6864 11.0986 37.7473C11.0986 37.9303 10.9156 38.1132 10.7327 38.1132C10.5497 38.1132 10.3058 37.9303 10.3668 37.7473C10.3668 37.6864 10.4278 37.4424 10.4888 37.1985C10.4278 37.4424 10.3668 37.6864 10.3058 37.7473C10.1839 38.1742 10.1229 38.4791 10.1229 38.6011C10.1229 38.906 10.3668 39.2109 10.7327 39.2109C11.0986 39.2109 11.3425 38.967 11.3425 38.6011C11.3425 38.4791 11.2205 38.1132 11.1596 37.6864C11.2815 38.1132 11.4035 38.4791 11.4645 38.6011C11.5864 38.906 12.0133 38.967 12.3182 38.845C12.6231 38.6621 12.7451 38.2962 12.5621 37.9913C12.5011 37.8693 12.2572 37.6254 11.9523 37.3205C12.2572 37.6254 12.5621 37.8693 12.6231 37.9303C12.928 38.1132 13.2939 37.9913 13.4768 37.6864C13.6598 37.3815 13.5378 37.0156 13.2329 36.8326C13.1109 36.7716 12.7451 36.6497 12.3182 36.5277C12.7451 36.6497 13.1109 36.7107 13.2329 36.7107C13.5988 36.7107 13.8427 36.4667 13.8427 36.1008C13.7208 35.9179 13.4768 35.613 13.1109 35.674ZM10.3058 37.0156C10.2448 36.9546 10.1839 36.8936 10.2448 36.7716C10.2448 36.7716 10.3058 36.6497 10.4278 36.5887C10.3668 36.6497 10.2448 36.7107 10.2448 36.7716C10.1839 36.8326 10.0619 36.7716 10.0009 36.7107C9.93993 36.6497 10.0009 36.5277 10.0619 36.4667C10.0619 36.4667 10.1839 36.4057 10.3058 36.4057C10.1839 36.4057 10.1229 36.4667 10.0619 36.4667C10.0009 36.4667 9.87895 36.4058 9.87895 36.2838C9.87895 36.2228 9.93993 36.1008 10.0619 36.1008C10.1229 36.1008 10.1839 36.1008 10.3058 36.1618C10.1839 36.1618 10.1229 36.1008 10.0619 36.1008C10.0009 36.0399 9.93993 35.9789 10.0009 35.8569C10.0619 35.7959 10.1229 35.735 10.2448 35.7959C10.2448 35.7959 10.3668 35.8569 10.4278 35.9789C10.3668 35.9179 10.3058 35.7959 10.2448 35.7959C10.1839 35.735 10.2448 35.613 10.3058 35.552C10.3668 35.491 10.4888 35.552 10.5497 35.613C10.5497 35.613 10.6107 35.735 10.6107 35.8569C10.5497 35.7959 10.5497 35.674 10.5497 35.674C10.5497 35.613 10.6107 35.491 10.7327 35.491C10.8546 35.491 10.9156 35.552 10.9156 35.674C10.9766 35.613 11.0376 35.552 11.1596 35.613C11.2205 35.674 11.2815 35.735 11.2205 35.8569C11.2205 35.8569 11.1596 35.9789 11.0376 36.0399C11.0986 35.9789 11.2205 35.9179 11.2205 35.8569C11.2815 35.7959 11.4035 35.8569 11.4645 35.9179C11.5254 35.9789 11.4645 36.1008 11.4035 36.1618C11.4035 36.1618 11.2815 36.2228 11.1596 36.2228C11.2815 36.2228 11.3425 36.1618 11.4035 36.1618C11.4645 36.1618 11.5864 36.2228 11.5864 36.3448C11.5864 36.4058 11.5254 36.5277 11.4035 36.5277C11.3425 36.5277 11.2815 36.5277 11.1596 36.4667C11.2815 36.4667 11.3425 36.5277 11.4035 36.5277C11.4645 36.5887 11.5254 36.6497 11.4645 36.7716C11.4035 36.8326 11.3425 36.8936 11.2205 36.8326C11.2205 36.8326 11.0986 36.7716 11.0376 36.6497C11.0986 36.7107 11.1596 36.8326 11.2205 36.8326C11.2815 36.8936 11.2205 37.0156 11.1596 37.0765C11.0986 37.1375 10.9766 37.0765 10.9156 37.0156C10.9156 37.0156 10.8546 36.8936 10.8546 36.7716C10.8546 36.8936 10.9156 36.9546 10.9156 37.0156C10.9156 37.0765 10.8546 37.1985 10.7327 37.1985C10.6717 37.1985 10.5497 37.1375 10.5497 37.0156C10.5497 36.9546 10.5497 36.8936 10.6107 36.7716C10.5497 36.8326 10.5497 36.8936 10.5497 36.9546C10.4888 37.0156 10.3668 37.0156 10.3058 37.0156ZM10.4888 36.7107C10.5497 36.7107 10.6107 36.7107 10.6107 36.6497C10.6107 36.6497 10.6107 36.5887 10.6717 36.5277C10.6717 36.5887 10.6107 36.6497 10.6107 36.6497C10.6107 36.7107 10.6717 36.7716 10.7327 36.7716C10.7937 36.7716 10.8546 36.7107 10.8546 36.6497C10.8546 36.6497 10.8546 36.5887 10.7937 36.5277C10.7937 36.5887 10.8546 36.6497 10.8546 36.6497C10.8546 36.7107 10.9156 36.7107 10.9766 36.7107C11.0376 36.7107 11.0376 36.6497 11.0376 36.5887C11.0376 36.5887 10.9766 36.5277 10.9156 36.4667C10.9766 36.5277 11.0376 36.5277 11.0376 36.5887C11.0986 36.5887 11.1596 36.5887 11.1596 36.5277C11.1596 36.4667 11.1596 36.4057 11.0986 36.4057C11.0986 36.4057 11.0376 36.4058 10.9766 36.3448C11.0376 36.3448 11.0986 36.4057 11.0986 36.4057C11.1596 36.4057 11.2205 36.3448 11.2205 36.2838C11.2205 36.2228 11.1596 36.1618 11.0986 36.1618C11.0986 36.1618 11.0376 36.1618 10.9766 36.2228C11.0376 36.2228 11.0986 36.1618 11.0986 36.1618C11.1596 36.1618 11.1596 36.1008 11.1596 36.0399C11.1596 35.9789 11.0986 35.9789 11.0376 35.9789C11.0376 35.9789 10.9766 36.0399 10.9156 36.1008C10.9766 36.0399 10.9766 35.9789 11.0376 35.9789C11.0376 35.9179 11.0376 35.8569 10.9766 35.8569C10.9156 35.8569 10.8546 35.8569 10.8546 35.9179C10.8546 35.9179 10.8546 35.9789 10.7937 36.0399C10.7937 35.9789 10.8546 35.9179 10.8546 35.9179C10.8546 35.8569 10.7937 35.7959 10.7327 35.7959C10.6717 35.7959 10.6107 35.8569 10.6107 35.9179C10.6107 35.9179 10.6107 35.9789 10.6717 36.0399C10.6717 35.9789 10.6107 35.9179 10.6107 35.9179C10.6107 35.8569 10.5497 35.8569 10.4888 35.8569C10.4278 35.8569 10.4278 35.9179 10.4278 35.9789C10.4278 35.9789 10.4888 36.0399 10.5497 36.1008C10.4888 36.0399 10.4278 36.0399 10.4278 35.9789C10.3668 35.9789 10.3058 35.9789 10.3058 36.0399C10.3058 36.1008 10.3058 36.1618 10.3668 36.1618C10.3668 36.1618 10.4278 36.1618 10.4888 36.2228C10.4278 36.2228 10.3668 36.1618 10.3668 36.1618C10.3058 36.1618 10.2448 36.2228 10.2448 36.2838C10.2448 36.3448 10.3058 36.4057 10.3668 36.4057C10.3668 36.4057 10.4278 36.4058 10.4888 36.3448C10.4278 36.3448 10.3668 36.4057 10.3668 36.4057C10.3058 36.4057 10.3058 36.4667 10.3058 36.5277C10.3058 36.5887 10.3668 36.5887 10.4278 36.5887C10.4278 36.5887 10.4888 36.5277 10.5497 36.4667C10.4888 36.5277 10.4888 36.5887 10.4278 36.5887C10.4278 36.6497 10.4278 36.7107 10.4888 36.7107Z" fill="#f6cda2"/>
<path fill-rule="evenodd" clip-rule="evenodd" d="M46.0408 11.5864C46.0408 12.3792 45.37 13.1109 44.5772 13.05C44.2723 13.05 43.3576 12.806 42.3209 12.5621C43.3576 12.867 44.2113 13.1109 44.5163 13.2329C45.248 13.5988 45.4919 14.5745 45.0651 15.2453C44.6382 15.9771 43.7235 16.221 43.0527 15.7941C42.8088 15.6112 42.138 15.0014 41.3452 14.2696C42.077 15.0014 42.7478 15.6722 42.8698 15.9771C43.3576 16.6479 43.0527 17.5626 42.3209 17.9894C41.5892 18.4163 40.6744 18.1724 40.3086 17.4406C40.1866 17.1357 39.8817 16.282 39.6378 15.2453C39.8817 16.282 40.1256 17.1357 40.1256 17.4406C40.1866 18.2334 39.4548 18.9042 38.6621 18.9042C37.8693 18.9042 37.1375 18.2334 37.1985 17.4406C37.1985 17.1357 37.4424 16.221 37.6864 15.2453C37.3815 16.282 37.1375 17.1357 37.0156 17.4406C36.6497 18.1724 35.674 18.4163 35.0032 17.9894C34.2714 17.5626 33.9665 16.6479 34.4544 15.9771C34.6373 15.7331 35.2471 15.0623 35.9789 14.2696C35.2471 15.0014 34.5153 15.6112 34.2714 15.7941C33.6006 16.282 32.6249 15.9771 32.259 15.2453C31.8322 14.5135 32.0761 13.5988 32.8079 13.2329C33.1128 13.1109 33.9665 12.806 35.0032 12.5621C33.9665 12.806 33.0518 13.05 32.7469 13.05C31.8932 13.1109 31.2833 12.3792 31.2833 11.5864C31.2833 10.7937 31.9541 10.0619 32.7469 10.1229C33.0518 10.1229 33.9665 10.3668 35.0032 10.6107C33.9665 10.3058 33.1128 10.0619 32.8079 9.93993C32.0761 9.57404 31.8322 8.59834 32.259 7.92755C32.6859 7.19578 33.6006 6.95185 34.2714 7.37872C34.5153 7.56166 35.1861 8.17148 35.9789 8.90325C35.2471 8.17148 34.5763 7.50068 34.4544 7.19578C33.9665 6.52498 34.2714 5.61027 35.0032 5.1834C35.735 4.75653 36.6497 5.00045 37.0156 5.73223C37.1375 6.03713 37.4424 6.89087 37.6864 7.92755C37.4424 6.89087 37.1985 6.03713 37.1985 5.73223C37.1375 4.93947 37.8693 4.26868 38.6621 4.26868C39.4548 4.26868 40.1866 4.93947 40.1256 5.73223C40.1256 6.03713 39.8817 6.95185 39.6378 7.92755C39.9427 6.89087 40.1866 6.03713 40.3086 5.73223C40.6744 5.00045 41.6501 4.75653 42.3209 5.1834C43.0527 5.61027 43.3576 6.52498 42.8698 7.19578C42.6868 7.4397 42.077 8.11049 41.3452 8.90325C42.077 8.17148 42.8088 7.56166 43.0527 7.37872C43.7235 6.89087 44.6992 7.19578 45.0651 7.92755C45.4919 8.65932 45.248 9.57404 44.5163 9.93993C44.2113 10.0619 43.3576 10.3668 42.3209 10.6107C43.3576 10.3668 44.2723 10.1229 44.5772 10.1229C45.37 10.0619 46.0408 10.7937 46.0408 11.5864ZM42.2599 10.6717C42.077 10.6717 41.5282 10.7937 40.9184 10.9766C41.5282 10.7937 42.077 10.6107 42.2599 10.5497C42.6868 10.3058 42.8698 9.75698 42.5649 9.33012C42.3209 8.90325 41.7111 8.7203 41.3452 9.02521C41.1623 9.14717 40.7964 9.51306 40.3086 9.93993C40.7354 9.45208 41.1623 9.08619 41.2843 8.90325C41.5892 8.47638 41.4062 7.92755 40.9793 7.68363C40.5525 7.4397 39.9427 7.56166 39.7597 7.98853C39.6987 8.17148 39.5158 8.7203 39.3329 9.33012C39.5158 8.7203 39.6378 8.17148 39.6378 7.98853C39.6987 7.50068 39.2109 7.07381 38.723 7.07381C38.2352 7.07381 37.7473 7.50068 37.8083 7.98853C37.8083 8.17148 37.9303 8.7203 38.1132 9.33012C37.9303 8.7203 37.7473 8.17148 37.6864 7.98853C37.4424 7.56166 36.8936 7.37872 36.4667 7.68363C36.0399 7.92755 35.8569 8.47638 36.1618 8.90325C36.2838 9.08619 36.6497 9.45208 37.1375 9.93993C36.6497 9.51306 36.2838 9.08619 36.1009 9.02521C35.674 8.7203 35.1252 8.90325 34.8812 9.33012C34.6373 9.75698 34.7593 10.3668 35.1861 10.5497C35.3691 10.6107 35.9179 10.7937 36.5277 10.9766C35.9179 10.7937 35.3691 10.6717 35.1861 10.6717C34.6983 10.6107 34.2714 11.0986 34.2714 11.5864C34.2714 12.0743 34.6983 12.5011 35.1861 12.5011C35.3691 12.5011 35.9179 12.3792 36.5277 12.1962C35.9179 12.3792 35.3691 12.5621 35.1861 12.6231C34.7593 12.867 34.5763 13.4159 34.8812 13.8427C35.1252 14.2696 35.735 14.4525 36.1009 14.1476C36.2838 14.0257 36.6497 13.6598 37.1375 13.2329C36.7107 13.7208 36.2838 14.0866 36.1618 14.2696C35.8569 14.6965 36.0399 15.2453 36.4667 15.4892C36.8936 15.7331 37.5034 15.6112 37.6864 15.1843C37.7473 15.0014 37.9303 14.4525 38.1132 13.8427C37.9303 14.4525 37.8083 15.0014 37.8083 15.1843C37.7473 15.6722 38.2352 16.099 38.723 16.099C39.2109 16.099 39.6987 15.6722 39.6378 15.1843C39.6378 15.0014 39.5158 14.4525 39.3329 13.8427C39.5158 14.4525 39.6987 15.0014 39.7597 15.1843C40.0036 15.6112 40.5525 15.7941 40.9793 15.4892C41.4062 15.2453 41.5892 14.6965 41.2843 14.2696C41.1623 14.0866 40.7964 13.7208 40.3086 13.2329C40.7964 13.6598 41.1623 14.0866 41.3452 14.1476C41.7721 14.4525 42.3209 14.2696 42.5649 13.8427C42.8088 13.4159 42.6868 12.806 42.2599 12.6231C42.077 12.5621 41.5282 12.3792 40.9184 12.1962C41.5282 12.3792 42.077 12.5011 42.2599 12.5011C42.7478 12.5621 43.1747 12.0743 43.1747 11.5864C43.1747 11.0986 42.7478 10.6717 42.2599 10.6717ZM41.4672 12.3182C41.3452 12.3182 40.8574 12.1962 40.3695 12.0743C40.8574 12.1962 41.2842 12.3182 41.4062 12.3792C41.7721 12.5621 41.8941 12.989 41.6501 13.3549C41.4672 13.7208 40.9793 13.8427 40.6744 13.5988C40.5525 13.5378 40.2476 13.2329 39.8817 12.867C40.2476 13.2329 40.5525 13.5378 40.6135 13.6598C40.8574 13.9647 40.6744 14.4525 40.3695 14.6355C40.0036 14.8184 39.5768 14.7574 39.3938 14.3916C39.3329 14.2696 39.2109 13.8427 39.0889 13.3549C39.2109 13.8427 39.3329 14.2696 39.3329 14.3916C39.3329 14.7574 39.0279 15.1233 38.6011 15.1233C38.2352 15.1233 37.8693 14.8184 37.8693 14.3916C37.8693 14.2696 37.9913 13.7817 38.1132 13.3549C37.9913 13.8427 37.8693 14.2696 37.8083 14.3916C37.6254 14.7574 37.1985 14.8184 36.8326 14.6355C36.4667 14.4525 36.3448 13.9647 36.5887 13.6598C36.6497 13.5378 36.9546 13.2329 37.3205 12.867C36.9546 13.2329 36.6497 13.5378 36.5277 13.5988C36.2228 13.8427 35.735 13.6598 35.552 13.3549C35.3691 12.989 35.4301 12.5621 35.7959 12.3792C35.9179 12.3182 36.3448 12.1962 36.8326 12.0743C36.3448 12.1962 35.9179 12.3182 35.735 12.3182C35.3691 12.3182 35.0032 12.0133 35.0032 11.5864C35.0032 11.2205 35.3081 10.8546 35.735 10.8546C35.8569 10.8546 36.3448 10.9766 36.8326 11.0986C36.3448 10.9766 35.9179 10.8546 35.7959 10.7937C35.4301 10.6107 35.3691 10.1839 35.552 9.81797C35.735 9.45208 36.2228 9.33012 36.5277 9.57404C36.6497 9.63502 36.9546 9.93993 37.3205 10.3058C36.9546 9.93993 36.6497 9.63502 36.5887 9.51306C36.3448 9.20815 36.5277 8.72031 36.8326 8.53736C37.1985 8.35442 37.6254 8.4154 37.8083 8.78129C37.8693 8.90325 37.9913 9.33012 38.1132 9.81797C37.9913 9.33012 37.8693 8.90325 37.8693 8.78129C37.8693 8.4154 38.1742 8.04951 38.6011 8.04951C38.967 8.04951 39.3329 8.35442 39.3329 8.78129C39.3329 8.90325 39.2109 9.3911 39.0889 9.81797C39.2109 9.33012 39.3329 8.90325 39.3938 8.78129C39.5768 8.4154 40.0036 8.35442 40.3695 8.53736C40.7354 8.72031 40.8574 9.20815 40.6135 9.51306C40.5525 9.63502 40.2476 9.93993 39.8817 10.3058C40.2476 9.93993 40.5525 9.63502 40.6744 9.57404C40.9793 9.33012 41.4672 9.51306 41.6501 9.81797C41.8331 10.1839 41.7721 10.6107 41.4062 10.7937C41.2842 10.8546 40.8574 10.9766 40.3695 11.0986C40.8574 10.9766 41.2842 10.8546 41.4672 10.8546C41.8331 10.8546 42.199 11.1596 42.199 11.5864C42.138 11.9523 41.8331 12.3182 41.4672 12.3182ZM37.5034 13.4768C37.6864 13.5988 37.9913 13.5378 38.1132 13.2939C38.1742 13.2329 38.2352 12.989 38.2962 12.6841C38.2352 12.806 38.0523 12.867 37.9303 12.7451C37.8083 12.6841 37.7473 12.5011 37.8083 12.3792C37.8693 12.3182 37.9303 12.1962 38.1132 12.0743C37.9913 12.1962 37.8693 12.3182 37.8083 12.3792C37.6254 12.5621 37.4424 12.806 37.3815 12.867C37.1985 13.05 37.3205 13.3549 37.5034 13.4768ZM38.4181 12.2572C38.4181 12.3792 38.4791 12.4402 38.6011 12.4402C38.723 12.4402 38.784 12.3792 38.784 12.2572C38.845 12.3182 38.906 12.3792 39.0279 12.3182C39.0889 12.2572 39.1499 12.1962 39.0889 12.0743C39.0889 12.0743 39.0279 11.9523 38.906 11.8913C38.967 11.9523 39.0889 12.0743 39.0889 12.0743C39.1499 12.1352 39.2719 12.0743 39.3329 12.0133C39.3938 11.9523 39.3329 11.8303 39.2719 11.7694C39.2109 11.7694 39.1499 11.7084 39.0279 11.7084C39.1499 11.7084 39.2719 11.7694 39.2719 11.7694C39.3938 11.7694 39.4548 11.7084 39.4548 11.5864C39.4548 11.4645 39.3938 11.4035 39.2719 11.4035C39.2109 11.4035 39.1499 11.4035 39.0279 11.4645C39.1499 11.4035 39.2719 11.4035 39.2719 11.4035C39.3329 11.3425 39.3938 11.2815 39.3329 11.1596C39.2719 11.0986 39.2109 11.0376 39.0889 11.0986C39.0889 11.0986 38.967 11.1596 38.906 11.2815C38.967 11.2205 39.0889 11.0986 39.0889 11.0986C39.1499 11.0376 39.0889 10.9156 39.0279 10.8546C38.967 10.7937 38.845 10.8546 38.784 10.9156C38.784 10.9766 38.723 11.0376 38.723 11.1596C38.723 11.0376 38.784 10.9156 38.784 10.9156C38.784 10.7937 38.723 10.7327 38.6011 10.7327C38.4791 10.7327 38.4181 10.7937 38.4181 10.9156C38.3572 10.8546 38.2962 10.7937 38.1742 10.8546C38.1132 10.9156 38.0522 10.9766 38.1132 11.0986C38.1132 11.0986 38.1742 11.2205 38.2962 11.2815C38.2352 11.2205 38.1132 11.0986 38.1132 11.0986C38.0522 11.0376 37.9303 11.0986 37.8693 11.1596C37.8083 11.2205 37.8693 11.3425 37.9303 11.4035C37.9913 11.4035 38.0523 11.4645 38.1742 11.4645C38.0523 11.4645 37.9303 11.4035 37.9303 11.4035C37.8083 11.4035 37.7473 11.4645 37.7473 11.5864C37.7473 11.7084 37.8083 11.7694 37.9303 11.7694C37.9913 11.7694 38.0523 11.7694 38.1742 11.7084C38.0523 11.7694 37.9303 11.7694 37.9303 11.7694C37.8693 11.8303 37.8083 11.8913 37.8693 12.0133C37.9303 12.0743 37.9913 12.1352 38.1132 12.0743C38.1132 12.0743 38.2352 12.0133 38.2962 11.8913C38.2352 11.9523 38.1132 12.0743 38.1132 12.0743C38.0522 12.1352 38.1132 12.2572 38.1742 12.3182C38.2962 12.3792 38.3572 12.3182 38.4181 12.2572C38.4181 12.1962 38.4181 12.1353 38.4791 12.0133C38.4791 12.1353 38.4791 12.2572 38.4181 12.2572ZM36.7107 12.6841C36.8326 12.867 37.0766 12.989 37.3205 12.867C37.3815 12.806 37.5644 12.6231 37.8083 12.4402C37.6864 12.5011 37.5644 12.4402 37.4424 12.3182C37.3815 12.1353 37.3815 11.9523 37.5034 11.8913C37.5644 11.8913 37.7473 11.8303 37.9303 11.7694C37.7473 11.8303 37.5644 11.8303 37.5034 11.8303C37.1985 11.8913 36.9546 12.0133 36.8936 12.0133C36.6497 12.1962 36.5887 12.4402 36.7107 12.6841ZM38.6011 9.3911C38.3572 9.3911 38.1742 9.57404 38.1742 9.81797C38.1742 9.87895 38.2352 10.1839 38.2962 10.4888C38.2352 10.1839 38.1132 9.93993 38.1132 9.87895C37.9913 9.63502 37.7473 9.57404 37.5034 9.696C37.3205 9.81797 37.1985 10.0619 37.3205 10.3058C37.3815 10.3668 37.5644 10.5497 37.7473 10.7937C37.5034 10.5497 37.3205 10.3668 37.2595 10.3668C37.0766 10.2448 36.7716 10.3058 36.6497 10.5497C36.5277 10.7327 36.5887 11.0376 36.8326 11.1596C36.8936 11.2205 37.1985 11.2815 37.5034 11.3425C37.1985 11.2815 36.9546 11.2205 36.8326 11.2205C36.5887 11.2205 36.4058 11.4035 36.4058 11.6474C36.4058 11.8913 36.5887 12.0743 36.8326 12.0743C36.8936 12.0743 37.1985 12.0133 37.5034 11.9523C37.3815 11.9523 37.2595 11.8303 37.2595 11.7084C37.2595 11.5864 37.3815 11.4035 37.5034 11.4645C37.5644 11.4645 37.7473 11.5254 37.9303 11.5254C37.7473 11.4645 37.5644 11.4035 37.5034 11.4035C37.3815 11.3425 37.3205 11.1596 37.3815 11.0376C37.4424 10.9156 37.6254 10.8546 37.7473 10.9156C37.8083 10.9766 37.9303 11.0376 38.0522 11.2205C37.9303 11.0986 37.8083 10.9766 37.7473 10.9156C37.6864 10.7937 37.7473 10.6107 37.8693 10.5497C37.9913 10.4888 38.1742 10.4888 38.2352 10.6717C38.2352 10.7327 38.2962 10.9156 38.3572 11.0986C38.2962 10.9156 38.2962 10.7327 38.2962 10.6717C38.2962 10.5497 38.4181 10.4278 38.5401 10.4278C38.6621 10.4278 38.784 10.5497 38.784 10.6717C38.845 10.3668 38.906 10.1229 38.906 10.0009C39.0279 9.63502 38.845 9.3911 38.6011 9.3911ZM39.6987 9.696C39.5158 9.57404 39.2109 9.63502 39.0889 9.87895C39.0279 9.93993 38.967 10.2448 38.906 10.4888C38.906 10.5497 38.845 10.7327 38.845 10.9156C38.906 10.7327 38.967 10.5497 38.967 10.4888C39.0279 10.3668 39.2109 10.3058 39.3329 10.3668C39.4548 10.4278 39.5158 10.6107 39.4548 10.7327C39.6378 10.5497 39.8207 10.3668 39.8817 10.2448C40.0036 10.1229 39.8817 9.81797 39.6987 9.696ZM40.4915 10.4888C40.3695 10.3058 40.1256 10.1839 39.8817 10.3058C39.8207 10.3668 39.6378 10.5497 39.3938 10.7327C39.3329 10.7937 39.2719 10.9156 39.0889 11.0376C39.2109 10.9156 39.3329 10.7937 39.3938 10.7327C39.5158 10.6717 39.6987 10.7327 39.7597 10.8546C39.8207 10.9766 39.8207 11.1596 39.6987 11.2205C40.0036 11.1596 40.2476 11.0376 40.3086 11.0376C40.5525 10.9766 40.6135 10.7327 40.4915 10.4888ZM40.3695 11.1596C40.3086 11.1596 40.0036 11.2205 39.7597 11.2815C39.6987 11.2815 39.5158 11.3425 39.3329 11.4035C39.5158 11.3425 39.6987 11.3425 39.7597 11.3425C39.8817 11.3425 40.0036 11.4645 40.0036 11.5864C40.0036 11.7084 39.8817 11.8913 39.7597 11.8303C39.6987 11.8303 39.5158 11.7694 39.3329 11.7694C39.5158 11.8303 39.6987 11.8913 39.7597 11.8913C39.8817 11.9523 39.9427 12.1353 39.8817 12.2572C39.8207 12.3792 39.6378 12.4402 39.5158 12.3792C39.4548 12.3182 39.3329 12.2572 39.2109 12.0743C39.3329 12.1962 39.4548 12.3182 39.5158 12.3792C39.5768 12.5011 39.5158 12.6841 39.3938 12.7451C39.2719 12.806 39.0889 12.806 39.0279 12.6231C39.0279 12.5621 38.967 12.3792 38.906 12.1962C38.967 12.3792 38.967 12.5621 38.967 12.6231C38.967 12.7451 38.845 12.867 38.723 12.867C38.6011 12.867 38.4181 12.7451 38.4791 12.6231C38.4791 12.5621 38.5401 12.3792 38.5401 12.1962C38.4791 12.3792 38.4181 12.5621 38.4181 12.6231C38.3572 12.928 38.2962 13.1719 38.2962 13.2329C38.2962 13.4768 38.4791 13.6598 38.723 13.6598C38.967 13.6598 39.1499 13.4768 39.1499 13.2329C39.1499 13.1719 39.0889 12.867 39.0279 12.5621C39.0889 12.867 39.2109 13.1109 39.2109 13.1719C39.3329 13.4159 39.5768 13.4768 39.8207 13.3549C40.0036 13.2329 40.1256 12.989 40.0036 12.7451C39.9427 12.6841 39.7597 12.5011 39.5768 12.2572C39.8207 12.5011 40.0036 12.6841 40.0646 12.6841C40.2476 12.806 40.5525 12.7451 40.6744 12.5011C40.7964 12.3182 40.7354 12.0133 40.4915 11.8913C40.4305 11.8303 40.1256 11.7694 39.8207 11.7084C40.1256 11.7694 40.3695 11.8303 40.4915 11.8303C40.7354 11.8303 40.9184 11.6474 40.9184 11.4035C40.7964 11.3425 40.5525 11.1596 40.3695 11.1596ZM38.2962 12.0743C38.2352 12.0133 38.2352 11.9523 38.2352 11.8913C38.1742 11.9523 38.1132 11.8913 38.0522 11.8303C37.9913 11.7694 38.0522 11.7084 38.1132 11.6474C38.1132 11.6474 38.1742 11.5864 38.2962 11.5864C38.2352 11.5864 38.1742 11.6474 38.1132 11.6474C38.0522 11.6474 37.9913 11.5864 37.9913 11.5254C37.9913 11.4645 38.0522 11.4035 38.1132 11.4035C38.1132 11.4035 38.2352 11.4035 38.2962 11.4645C38.2352 11.4645 38.1742 11.4035 38.1132 11.4035C38.0522 11.4035 38.0522 11.2815 38.0522 11.2205C38.1132 11.1596 38.1742 11.1596 38.2352 11.1596C38.1742 11.0986 38.2352 11.0376 38.2962 10.9766C38.3572 10.9156 38.4181 10.9766 38.4791 11.0376C38.4791 11.0376 38.5401 11.0986 38.5401 11.2205C38.5401 11.1596 38.4791 11.0986 38.4791 11.0376C38.4791 10.9766 38.5401 10.9156 38.6011 10.9156C38.6621 10.9156 38.723 10.9766 38.723 11.0376C38.723 11.0376 38.723 11.1596 38.6621 11.2205C38.6621 11.1596 38.723 11.0986 38.723 11.0376C38.723 10.9766 38.845 10.9766 38.906 10.9766C38.967 11.0376 38.967 11.0986 38.967 11.1596C39.0279 11.0986 39.0889 11.1596 39.1499 11.2205C39.2109 11.2815 39.1499 11.3425 39.0889 11.4035C39.0889 11.4035 39.0279 11.4645 38.906 11.4645C38.967 11.4645 39.0279 11.4035 39.0889 11.4035C39.1499 11.4035 39.2109 11.4645 39.2109 11.5254C39.2109 11.5864 39.1499 11.6474 39.0889 11.6474C39.0889 11.6474 38.967 11.6474 38.906 11.5864C38.967 11.5864 39.0279 11.6474 39.0889 11.6474C39.1499 11.6474 39.1499 11.7694 39.1499 11.8303C39.0889 11.8913 39.0279 11.8913 38.967 11.8913C39.0279 11.9523 38.967 12.0133 38.906 12.0743C38.845 12.1352 38.784 12.0743 38.723 12.0133C38.723 12.0133 38.6621 11.9523 38.6621 11.8303C38.6621 11.8913 38.723 11.9523 38.723 12.0133C38.723 12.0743 38.6621 12.1353 38.6011 12.1353C38.5401 12.1353 38.4791 12.0743 38.4791 12.0133C38.4791 12.0133 38.4791 11.8913 38.5401 11.8303C38.5401 11.8913 38.4791 11.9523 38.4791 12.0133C38.4791 12.1353 38.3572 12.1352 38.2962 12.0743ZM38.4181 11.8913C38.4791 11.8913 38.4791 11.8913 38.5401 11.8913C38.5401 11.8913 38.5401 11.8303 38.6011 11.7694C38.6011 11.8303 38.6011 11.8303 38.6011 11.8913C38.6011 11.9523 38.6621 11.9523 38.6621 11.9523C38.723 11.9523 38.723 11.8913 38.723 11.8913C38.723 11.8913 38.723 11.8303 38.723 11.7694C38.723 11.8303 38.723 11.8303 38.784 11.8913C38.784 11.9523 38.845 11.9523 38.906 11.8913C38.967 11.8913 38.967 11.8303 38.906 11.7694L38.845 11.7084C38.906 11.7694 38.906 11.7694 38.906 11.7694C38.967 11.7694 38.967 11.7694 39.0279 11.7694C39.0279 11.7084 39.0279 11.7084 39.0279 11.6474C39.0279 11.6474 38.967 11.6474 38.906 11.5864C38.967 11.5864 38.967 11.5864 39.0279 11.5864C39.0889 11.5864 39.0889 11.5254 39.0889 11.5254C39.0889 11.4645 39.0279 11.4645 39.0279 11.4645C39.0279 11.4645 38.967 11.4645 38.906 11.4645C38.967 11.4645 38.967 11.4645 39.0279 11.4035C39.0889 11.4035 39.0889 11.3425 39.0279 11.2815C39.0279 11.2205 38.967 11.2205 38.906 11.2815L38.845 11.3425C38.906 11.2815 38.906 11.2815 38.906 11.2815C38.906 11.2205 38.906 11.2205 38.906 11.1596C38.845 11.1596 38.845 11.1596 38.784 11.1596C38.784 11.1596 38.784 11.2205 38.723 11.2815C38.723 11.2205 38.723 11.2205 38.723 11.1596C38.723 11.0986 38.6621 11.0986 38.6621 11.0986C38.6011 11.0986 38.6011 11.1596 38.6011 11.1596C38.6011 11.1596 38.6011 11.2205 38.6011 11.2815C38.6011 11.2205 38.6011 11.2205 38.5401 11.1596C38.5401 11.0986 38.4791 11.0986 38.4181 11.1596C38.3572 11.1596 38.3572 11.2205 38.4181 11.2815L38.4791 11.3425C38.4181 11.2815 38.4181 11.2815 38.4181 11.2815C38.3572 11.2815 38.3572 11.2815 38.2962 11.2815C38.2962 11.3425 38.2962 11.3425 38.2962 11.4035C38.2962 11.4035 38.3572 11.4035 38.4181 11.4645C38.3572 11.4645 38.3572 11.4645 38.2962 11.4645C38.2352 11.4645 38.2352 11.5254 38.2352 11.5254C38.2352 11.5864 38.2962 11.5864 38.2962 11.5864C38.2962 11.5864 38.3572 11.5864 38.4181 11.5864C38.3572 11.5864 38.3572 11.5864 38.2962 11.6474C38.2352 11.6474 38.2352 11.7084 38.2962 11.7694C38.2962 11.8303 38.3572 11.8303 38.4181 11.7694L38.4791 11.7084C38.4181 11.7694 38.4181 11.7694 38.4181 11.7694C38.4181 11.8303 38.4181 11.8913 38.4181 11.8913Z" fill="#f6cda2"/>
<path fill-rule="evenodd" clip-rule="evenodd" d="M22.746 45.8578C22.746 45.8578 20.9775 52.3828 9.51306 52.2609C9.51306 52.2609 15.0014 42.5039 22.746 45.8578Z" fill="#f6cda2"/>
<path fill-rule="evenodd" clip-rule="evenodd" d="M45.309 16.8308C45.309 16.8308 49.6387 14.7574 54.883 21.0995C54.944 21.0385 47.0775 22.563 45.309 16.8308Z" fill="#f6cda2"/>
<path fill-rule="evenodd" clip-rule="evenodd" d="M45.7359 16.16C45.7359 16.16 45.4919 13.2329 49.9436 11.5864C49.8826 11.5864 49.2118 16.4649 45.7359 16.16Z" fill="#f6cda2"/>
<path fill-rule="evenodd" clip-rule="evenodd" d="M24.0876 46.2847C24.0876 46.2847 26.5878 48.9679 23.2338 54.2732C23.2338 54.2122 20.3067 48.8459 24.0876 46.2847Z" fill="#f6cda2"/>
</svg>
