<svg width="352" height="44" viewBox="0 0 352 44" fill="none" xmlns="http://www.w3.org/2000/svg">
<path d="M2.3991 1.65688C13.6271 1.65688 22.7464 10.7761 22.7464 22.0041C22.7464 33.2322 13.6271 42.4084 2.3991 42.4084H0.746246V1.65688H2.3991ZM2.3991 40.6985C12.7152 40.6985 21.0935 32.3203 21.0935 22.0041C21.0935 11.688 12.7152 3.30974 2.3991 3.30974V40.6985ZM36.703 3.36674H30.1486V14.5948H36.703V16.3046H30.1486V40.6985H36.703V42.4084H28.4957V1.65688H36.703V3.36674ZM58.9739 16.3046V42.4084H57.321V1.65688H65.5283V3.36674H58.9739V14.5378H65.5283V16.3046H58.9739ZM86.8374 15.5637C86.8374 20.8642 83.9306 25.4808 79.599 27.8176L86.8374 42.4084H84.9565L78.0601 28.5016C76.5782 29.1285 74.9254 29.4705 73.2155 29.4705H72.9305V42.4084H71.2777V1.65688H73.2155C80.7389 1.65688 86.8374 7.86935 86.8374 15.5637ZM72.9305 3.30974V27.8176H73.2155C79.827 27.8176 85.1845 22.2891 85.1845 15.5637C85.1845 8.78127 79.827 3.30974 73.2155 3.30974H72.9305ZM112.535 42.4084L110.939 35.9679H95.3225L93.7266 42.4084H92.0168L102.105 1.65688H104.157L114.245 42.4084H112.535ZM95.7215 34.2581H110.54L103.131 4.50664L95.7215 34.2581ZM138.689 1.65688H140.342V42.4084H138.689V35.056C138.404 22.0041 131.735 10.5481 121.647 3.65171V42.4084H119.994V1.65688H121.647C129.797 6.84344 135.896 14.8798 138.689 24.3979V1.65688ZM154.64 43.2063C151.277 43.2063 148.086 41.6105 146.091 38.8747L147.402 37.9058C149.112 40.1856 151.79 41.5535 154.64 41.5535C159.485 41.5535 163.474 37.5638 163.474 32.6622C163.474 27.5897 159.599 23.885 155.837 20.2373C152.189 16.8176 148.485 13.2269 148.485 8.4963C148.485 4.27866 151.961 0.801956 156.179 0.801956C158.63 0.801956 160.967 1.99885 162.448 3.99368L161.081 4.9626C159.941 3.42373 158.117 2.45481 156.179 2.45481C152.873 2.45481 150.138 5.19058 150.138 8.4963C150.138 12.486 153.443 15.6777 156.977 19.0404C160.967 22.9161 165.127 26.9057 165.127 32.6622C165.127 38.4757 160.397 43.2063 154.64 43.2063ZM179.084 3.36674H172.529V14.5948H179.084V16.3046H172.529V40.6985H179.084V42.4084H170.877V1.65688H179.084V3.36674ZM220.277 1.65688H221.987L211.842 42.4084H209.847L199.702 1.65688H201.412L210.816 39.5586L220.277 1.65688ZM243.296 15.5637C243.296 20.8642 240.389 25.4808 236.058 27.8176L243.296 42.4084H241.415L234.519 28.5016C233.037 29.1285 231.384 29.4705 229.674 29.4705H229.389V42.4084H227.736V1.65688H229.674C237.198 1.65688 243.296 7.86935 243.296 15.5637ZM229.389 3.30974V27.8176H229.674C236.286 27.8176 241.643 22.2891 241.643 15.5637C241.643 8.78127 236.286 3.30974 229.674 3.30974H229.389ZM250.698 1.65688V42.4084H249.045V1.65688H250.698ZM264.655 3.36674H258.101V14.5948H264.655V16.3046H258.101V40.6985H264.655V42.4084H256.448V1.65688H264.655V3.36674ZM289.099 1.65688H290.752V42.4084H289.099V35.056C288.814 22.0041 282.145 10.5481 272.057 3.65171V42.4084H270.404V1.65688H272.057C280.208 6.84344 286.306 14.8798 289.099 24.3979V1.65688ZM298.154 1.65688C309.382 1.65688 318.501 10.7761 318.501 22.0041C318.501 33.2322 309.382 42.4084 298.154 42.4084H296.501V1.65688H298.154ZM298.154 40.6985C308.47 40.6985 316.848 32.3203 316.848 22.0041C316.848 11.688 308.47 3.30974 298.154 3.30974V40.6985ZM325.903 1.65688V42.4084H324.25V1.65688H325.903ZM350.347 1.65688H352V42.4084H350.347V35.056C350.062 22.0041 343.394 10.5481 333.306 3.65171V42.4084H331.653V1.65688H333.306C341.456 6.84344 347.554 14.8798 350.347 24.3979V1.65688Z" fill="#f6cda2"/>
</svg>
